<?xml version="1.0" encoding="UTF-8"?>
<svg id="Capa_2" data-name="Capa 2" xmlns="http://www.w3.org/2000/svg" xmlns:xlink="http://www.w3.org/1999/xlink" viewBox="0 0 385 96">
  <defs>
    <style>
      .cls-1 {
        fill: #1f2740;
      }

      .cls-1, .cls-2, .cls-3, .cls-4, .cls-5, .cls-6, .cls-7, .cls-8 {
        stroke-width: 0px;
      }

      .cls-2 {
        fill: #e30613;
      }

      .cls-4 {
        fill: none;
      }

      .cls-5 {
        fill: #f7a600;
      }

      .cls-6 {
        fill: #fff;
      }

      .cls-7 {
        fill: #f49800;
      }

      .cls-9 {
        clip-path: url(#clippath);
      }

      .cls-8 {
        fill: url(#Degradado_sin_nombre_2);
      }
    </style>
    <clipPath id="clippath">
      <rect class="cls-4" width="385" height="96"/>
    </clipPath>
    <linearGradient id="Degradado_sin_nombre_2" data-name="Degradado sin nombre 2" x1="80.43" y1="61.1" x2="251.64" y2="61.1" gradientTransform="translate(0 97.41) scale(1 -1)" gradientUnits="userSpaceOnUse">
      <stop offset=".41" stop-color="#e30613"/>
      <stop offset=".42" stop-color="#e61e10"/>
      <stop offset=".47" stop-color="#ed5809"/>
      <stop offset=".5" stop-color="#f28204"/>
      <stop offset=".53" stop-color="#f59c01"/>
      <stop offset=".55" stop-color="#f7a600"/>
    </linearGradient>
  </defs>
  <g id="Capa_1-2" data-name="Capa 1">
    <g class="cls-9">
      <g>
        <path class="cls-6" d="m111.2,80.44l-1.88-1.25,4.93-7.18-5.24-3.5c-.23-.16-.46-.19-.66-.09-.21.09-.4.26-.57.51l-4.35,6.32-1.88-1.25,4.9-7.14c.22-.32.46-.57.74-.76.28-.19.56-.32.84-.38.28-.06.56-.07.83-.02.27.05.53.15.76.31l13.88,9.28c.22.15.41.34.56.58.15.24.25.5.28.8.04.29.02.6-.06.91-.07.32-.22.63-.42.93l-4.9,7.14-1.88-1.25,4.35-6.33c.18-.25.26-.5.26-.73s-.11-.42-.32-.56l-5.26-3.52-4.93,7.18h.02Z"/>
        <path class="cls-6" d="m137.89,89.48l16.24,3.23-.49,2.37-18.46-3.67,2.22-10.88,18.46,3.67-.49,2.38-16.24-3.23-.38,1.86,16.24,3.23-.49,2.37-16.24-3.23-.38,1.88h0Z"/>
        <path class="cls-6" d="m186.26,83.83c.27.09.51.24.72.43.21.19.39.43.54.73.14.3.22.62.26.99l.46,6.23c.03.39,0,.75-.1,1.05-.1.31-.24.57-.42.79-.18.22-.4.39-.65.52-.25.13-.51.2-.78.21l-16.65,1.21-.82-11.07,16.65-1.21c.26-.02.54.02.81.11h0Zm-.55,8.28c.14-.21.21-.46.18-.76l-.31-4.18c-.02-.31-.1-.54-.25-.73-.14-.18-.34-.26-.6-.24l-13.49.98.46,6.23,13.46-.98c.21-.02.39-.13.54-.32h0Z"/>
        <path class="cls-6" d="m205.67,90.44l-2.19.65-3.22-10.64,2.19-.65,3.22,10.64Z"/>
        <path class="cls-6" d="m236.65,74.62l-1.88,1.25-2.46-3.61-11.88,7.88,2.46,3.61-1.88,1.25-4.9-7.2c-.22-.32-.36-.63-.43-.95-.07-.32-.09-.61-.04-.9.05-.28.14-.54.3-.76.15-.23.34-.42.57-.58l12.09-8.01c.22-.15.47-.24.76-.29.28-.05.56-.04.84.02.28.06.56.19.83.37.27.19.51.43.72.74l4.9,7.2h0Zm-18.07,2.78l.49.73,11.88-7.88-.49-.73c-.18-.25-.37-.43-.59-.5-.21-.09-.43-.06-.65.08l-10.58,7.01c-.23.16-.34.35-.34.57s.1.47.27.72h0Z"/>
        <path class="cls-2" d="m1.77,20.5h12.54c2.15,0,3.84.43,5.1,1.29.26.13.7.48,1.29,1.08.75.88,1.27,1.83,1.55,2.82.25.88.38,1.74.38,2.57v1.92c0,1.04-.48,2.05-1.45,3.03-.64.58-1.29,1.06-1.94,1.43-1.11.65-2.37,1.27-3.79,1.85v.02h3.12c.6,0,1.45,0,2.54.02.41,0,.79.18,1.14.54.25.3.38.62.38.96v.28c0,1.62-.4,3.1-1.19,4.41-.83,1.33-2.12,2.3-3.85,2.89-.96.29-1.93.44-2.92.44H1.55c-.54,0-1-.27-1.35-.8-.14-.22-.21-.54-.21-.92v-6.06c0-.61.18-1.05.53-1.33.3-.27.66-.4,1.05-.4.58,0,1.04.28,1.38.83.13.24.18.46.18.67v4.91h11.54c1.6,0,2.86-.48,3.76-1.44.44-.55.74-1.17.89-1.87h-.6c-.77,0-1.21,0-1.33-.02-.08,0-.42,0-1.01.02-3.44.02-6.25.02-8.4.02-.48,0-.89-.23-1.25-.69-.18-.28-.27-.58-.27-.89,0-.51.26-.95.77-1.31,1.67-.82,3.91-1.82,6.72-3,1.5-.64,2.75-1.25,3.73-1.81,1.18-.74,1.77-1.34,1.77-1.8v-1.85c0-1.27-.34-2.35-1.04-3.25-.41-.42-.7-.65-.89-.73-.73-.47-1.79-.71-3.19-.71H3.16v8.11c0,.51-.25.94-.75,1.28-.25.16-.51.24-.78.24h-.07c-.58,0-1.04-.28-1.38-.86C.06,32.15,0,31.86,0,31.49v-9.25c0-.67.22-1.15.65-1.43.22-.21.6-.32,1.13-.32h0Z"/>
        <path class="cls-2" d="m27.85,36.5h.12c.54,0,1,.28,1.35.83.14.19.21.58.21,1.16,0,.53.13,1.14.38,1.85.4,1,1.03,1.7,1.89,2.09.36.17.79.3,1.28.4.38.08,1.05.12,2.01.12h5.97c.42,0,.81.19,1.16.58.22.3.34.61.34.91v.13c0,.48-.24.9-.72,1.25-.26.17-.54.25-.81.25h-6.8c-1.81,0-3.41-.47-4.81-1.41-.3-.21-.63-.5-.97-.84-1.4-1.49-2.09-3.4-2.09-5.72,0-.67.34-1.17,1.02-1.5.21-.06.37-.09.5-.09h-.02Zm6.39-9.66h3.67c2.04,0,3.78.57,5.23,1.7.42.37.73.69.92.94,1.16,1.46,1.74,3.19,1.74,5.21v3.41c0,.48-.23.9-.69,1.25-.29.17-.55.25-.8.25h-9.94c-.49,0-.91-.25-1.28-.76-.15-.28-.22-.54-.22-.79,0-.58.26-1.02.8-1.36.25-.13.48-.21.69-.21h8.27v-1.78c0-1.51-.44-2.7-1.33-3.62-.5-.47-1.21-.8-2.13-1.01-.41-.09-1.13-.13-2.18-.13h-1.84c-1.29,0-2.17.09-2.64.25-.38.13-.72.26-1.01.42-.69.42-1.21,1.02-1.57,1.82-.36.5-.8.74-1.29.74h-.17c-.38,0-.75-.19-1.13-.58-.22-.32-.34-.65-.34-.98,0-.53.38-1.28,1.14-2.25.52-.55.89-.89,1.11-1.03,1.4-1.01,3.06-1.51,4.99-1.51v.02Z"/>
        <path class="cls-2" d="m57.92,26.85h2.6c1.93,0,3.48.32,4.62.98,1.43.75,2.49,1.94,3.17,3.56.42,1.06.63,2.21.63,3.43v9.72c0,.5-.25.93-.75,1.28-.26.16-.53.24-.8.24h-9.95c-2.45,0-4.43-.76-5.93-2.3-1.35-1.48-2.03-3.37-2.03-5.68,0-.61.3-1.07.89-1.4.19-.11.49-.17.89-.17h9.37c.62,0,1.07.17,1.34.49.3.3.45.65.45,1.04v.07c0,.48-.22.9-.66,1.25-.29.18-.58.27-.87.27h-8.06c0,.15.14.54.41,1.2.78,1.41,2.19,2.12,4.23,2.12h8.32v-8.14c0-1.66-.5-2.93-1.5-3.8-.78-.67-2-1.01-3.64-1.01h-2.8c-1.69,0-2.92.34-3.68,1.01-.3.26-.55.54-.74.82-.22.42-.39.7-.5.86-.35.35-.75.52-1.19.52h-.07c-.46,0-.88-.22-1.25-.65-.18-.28-.27-.58-.27-.91,0-.56.43-1.36,1.29-2.39.62-.61,1.05-.97,1.31-1.1.51-.35,1.11-.63,1.79-.86.86-.29,1.99-.44,3.37-.44h.02Z"/>
        <path class="cls-2" d="m74.17,20.5h.15c.49,0,.91.24,1.26.73.16.27.24.52.24.76v4.94h4.99c.49,0,.91.24,1.26.73.16.26.24.5.24.74v.15c0,.48-.25.9-.74,1.25-.27.16-.53.24-.77.24h-4.99v1.72c0,.54-.29.99-.85,1.33-.25.11-.48.17-.68.17h-.1c-.5,0-.92-.24-1.26-.73-.17-.24-.26-.5-.26-.77v-9.75c0-.48.25-.9.74-1.25.27-.16.53-.24.77-.24h0Zm0,16.04h.15c.51,0,.94.26,1.29.77.14.19.21.57.21,1.13,0,.6.14,1.28.44,2.05.4.92,1.03,1.58,1.91,1.96.64.32,1.64.49,3.02.49h1.26c.48,0,.89.24,1.25.73.16.26.24.51.24.76v.15c0,.47-.25.88-.74,1.25-.26.14-.51.22-.75.22h-1.94c-1.92,0-3.6-.52-5.03-1.56-.54-.43-.93-.83-1.19-1.17-.32-.43-.56-.82-.74-1.17-.59-1.25-.89-2.52-.89-3.83v-.28c0-.47.25-.88.74-1.25.27-.15.53-.22.77-.22h0Z"/>
        <path class="cls-5" d="m255.76,20.5c4.42,0,7.96,2.1,10.62,6.29.72,1.22,1.31,2.42,1.77,3.58.24.6.42,1.1.56,1.53h.03c.52-1.54,1.09-2.89,1.72-4.04.46-.87,1.07-1.8,1.84-2.79,2.5-3.05,5.62-4.57,9.37-4.57.65,0,1.14.3,1.46.91.1.17.15.47.15.91v21.92c0,.58-.13,1-.38,1.25-.33.38-.72.58-1.17.58h-.07c-.6,0-1.07-.31-1.4-.92-.09-.21-.14-.39-.14-.58v-20.81c-.44.07-.91.18-1.41.35-.58.21-1.1.46-1.57.74-2.34,1.47-4.2,4.29-5.59,8.46-.48,1.49-.93,3.26-1.35,5.3-.06.18-.22.4-.48.67-.33.24-.66.37-.99.37h-.09c-.54,0-.98-.27-1.33-.8-.09-.13-.22-.65-.39-1.55-.57-2.48-1.19-4.52-1.88-6.13-.52-1.25-1.15-2.4-1.89-3.48-.3-.46-.81-1.06-1.53-1.78-.77-.67-1.42-1.13-1.94-1.36-.67-.37-1.47-.63-2.4-.79v7.97c0,.54-.27.99-.82,1.33-.25.13-.5.18-.74.18h-.05c-.5,0-.93-.23-1.28-.69-.18-.24-.27-.59-.27-1.08v-9.2c0-.54.13-.94.38-1.19.33-.38.74-.58,1.23-.58h.02Zm-.02,16.03c.62,0,1.09.3,1.43.91.09.2.14.4.14.61v6.53c0,.47-.24.88-.72,1.23-.27.17-.55.25-.84.25h-.07c-.54,0-1-.28-1.35-.83-.13-.22-.18-.54-.18-.94v-5.99c0-.58.14-1,.42-1.26.33-.34.72-.5,1.16-.5h.02Z"/>
        <path class="cls-5" d="m295.39,26.85h2.61c1.93,0,3.48.32,4.62.98,1.43.75,2.49,1.94,3.17,3.56.42,1.06.63,2.21.63,3.43v9.72c0,.5-.25.93-.75,1.28-.26.16-.53.24-.8.24h-9.96c-2.45,0-4.43-.76-5.93-2.3-1.35-1.48-2.03-3.37-2.03-5.68,0-.61.3-1.07.89-1.4.19-.11.49-.17.89-.17h9.37c.62,0,1.07.17,1.34.49.3.3.45.65.45,1.04v.07c0,.48-.22.9-.66,1.25-.29.18-.58.27-.87.27h-8.06c0,.15.14.54.41,1.2.78,1.41,2.19,2.12,4.23,2.12h8.32v-8.14c0-1.66-.5-2.93-1.5-3.8-.78-.67-2-1.01-3.64-1.01h-2.8c-1.69,0-2.92.34-3.68,1.01-.3.26-.55.54-.73.82-.22.42-.39.7-.49.86-.35.35-.75.52-1.19.52h-.07c-.46,0-.88-.22-1.25-.65-.18-.28-.27-.58-.27-.91,0-.56.43-1.36,1.29-2.39.62-.61,1.05-.97,1.31-1.1.51-.35,1.11-.63,1.79-.86.86-.29,1.99-.44,3.37-.44h.02Z"/>
        <path class="cls-5" d="m318.25,26.85h3.44c2.93,0,5.15,1.04,6.65,3.13.46.73.7,1.24.7,1.53v.19c0,.53-.27.96-.81,1.31-.25.13-.51.18-.78.18-.54,0-.98-.24-1.33-.74-.45-1-1.13-1.68-2.04-2.03-.7-.29-1.49-.44-2.39-.44h-3.43c-2.34,0-3.84.9-4.5,2.7-.22.66-.34,1.33-.34,2v1.82h3.29c.67,0,1.17.33,1.49.99.07.18.1.34.1.49v.17c0,.46-.23.87-.7,1.21-.27.18-.58.27-.93.27h-4.77c-.74,0-1.25-.35-1.55-1.06-.06-.16-.09-.31-.09-.46v-3.5c0-1.65.44-3.17,1.31-4.57.22-.34.56-.73,1.01-1.17,1.46-1.35,3.36-2.02,5.7-2.02h0Zm4.87,9.66h4.98c.65,0,1.15.32,1.49.98.08.22.12.43.12.62,0,2.31-.7,4.23-2.12,5.73-1.48,1.48-3.47,2.22-5.97,2.22h-9.83c-.58,0-1.04-.28-1.38-.84-.11-.22-.17-.44-.17-.65v-.12c0-.53.28-.97.84-1.32.24-.13.5-.19.8-.19h9.73c2.25,0,3.73-.79,4.45-2.36.13-.32.22-.63.3-.95h-3.19c-.67,0-1.17-.32-1.49-.98-.08-.21-.12-.41-.12-.59,0-.61.3-1.08.89-1.41.22-.1.45-.15.66-.15h0Z"/>
        <path class="cls-5" d="m335.09,20.5h.15c.49,0,.91.24,1.26.73.16.27.24.52.24.76v4.94h4.99c.49,0,.91.24,1.26.73.16.26.24.5.24.74v.15c0,.48-.25.9-.73,1.25-.27.16-.53.24-.77.24h-4.99v1.72c0,.54-.29.99-.85,1.33-.25.11-.48.17-.68.17h-.1c-.5,0-.92-.24-1.26-.73-.17-.24-.26-.5-.26-.77v-9.75c0-.48.25-.9.73-1.25.27-.16.53-.24.77-.24h0Zm0,16.04h.15c.51,0,.94.26,1.29.77.14.19.21.57.21,1.13,0,.6.14,1.28.44,2.05.4.92,1.03,1.58,1.91,1.96.64.32,1.64.49,3.02.49h1.26c.48,0,.89.24,1.25.73.16.26.24.51.24.76v.15c0,.47-.25.88-.73,1.25-.26.14-.51.22-.75.22h-1.94c-1.92,0-3.6-.52-5.02-1.56-.54-.43-.93-.83-1.19-1.17-.32-.43-.56-.82-.73-1.17-.59-1.25-.89-2.52-.89-3.83v-.28c0-.47.25-.88.73-1.25.27-.15.53-.22.77-.22h0Z"/>
        <path class="cls-5" d="m350.26,36.5h.12c.54,0,1,.28,1.35.83.14.19.21.58.21,1.16,0,.53.13,1.14.38,1.85.4,1,1.03,1.7,1.89,2.09.36.17.79.3,1.28.4.38.08,1.05.12,2.01.12h5.97c.42,0,.81.19,1.16.58.22.3.34.61.34.91v.13c0,.48-.24.9-.72,1.25-.26.17-.54.25-.82.25h-6.8c-1.81,0-3.41-.47-4.81-1.41-.3-.21-.63-.5-.98-.84-1.4-1.49-2.09-3.4-2.09-5.72,0-.67.34-1.17,1.02-1.5.21-.06.37-.09.5-.09h-.02Zm6.39-9.66h3.67c2.04,0,3.78.57,5.23,1.7.42.37.73.69.92.94,1.16,1.46,1.74,3.19,1.74,5.21v3.41c0,.48-.23.9-.69,1.25-.29.17-.55.25-.8.25h-9.94c-.49,0-.91-.25-1.28-.76-.15-.28-.22-.54-.22-.79,0-.58.26-1.02.8-1.36.25-.13.48-.21.7-.21h8.27v-1.78c0-1.51-.44-2.7-1.33-3.62-.5-.47-1.21-.8-2.13-1.01-.41-.09-1.13-.13-2.18-.13h-1.84c-1.29,0-2.17.09-2.64.25-.38.13-.72.26-1.01.42-.7.42-1.21,1.02-1.57,1.82-.36.5-.8.74-1.29.74h-.17c-.38,0-.75-.19-1.13-.58-.22-.32-.34-.65-.34-.98,0-.53.38-1.28,1.14-2.25.52-.55.89-.89,1.11-1.03,1.4-1.01,3.06-1.51,4.99-1.51v.02Z"/>
        <path class="cls-5" d="m380.84,26.86h2.32c.59,0,1,.12,1.23.35.26.17.45.44.56.82.03.1.05.2.05.32v.15c0,.48-.25.9-.75,1.25-.26.16-.52.24-.78.24h-2.86c-1.3,0-2.27.15-2.9.44-.88.35-1.53.96-1.94,1.81-.14.32-.37.58-.7.77-.24.13-.47.18-.7.18h-.14c-.06,0-.14,0-.25-.02-.1,0-.19.02-.27.02h-.12c-.51,0-.94-.25-1.29-.76-.15-.22-.22-.56-.22-1.01v-2.79c0-.65.19-1.11.56-1.38.3-.26.62-.39.95-.39h.15c.42,0,.81.2,1.16.59.22.3.33.55.33.76.52-.35,1.02-.61,1.5-.77.86-.28,1.4-.42,1.64-.42.43-.11,1.26-.17,2.48-.17h0Zm-7.26,9.66h.15c.42,0,.81.2,1.16.59.22.3.34.61.34.91v6.56c0,.48-.25.89-.74,1.23-.25.17-.52.25-.8.25h-.12c-.52,0-.97-.27-1.33-.8-.13-.24-.19-.55-.19-.91v-6.06c0-.65.19-1.11.56-1.38.3-.26.62-.39.95-.39h0Z"/>
        <path class="cls-7" d="m169.34,36.51c0,.64-.49,1.14-1.1,1.14-.67,0-1.19-.53-1.16-1.21.03-.66.54-1.08,1.21-1.14.56-.05,1.05.55,1.04,1.2h0Z"/>
        <path class="cls-3" d="m184.49,43.98c-.02-.15-.02-.28.18-.37.03.19-.06.28-.2.35l.02.02Z"/>
        <path class="cls-1" d="m184.48,43.96v.03s0,0,.01-.02v-.02Z"/>
        <path class="cls-8" d="m241.69,34.65c-2.76.09-10.27.5-11.78.56-.75.02-1.46.22-2.04.75-.34.32-.67.63-1.01.95-.29.28-.46.28-.69-.04-.22-.31-.39-.65-.56-.99-.3-.61-.61-1.2-1.13-1.67-1.14-1.04-2.64-.84-3.43.5-.23.39-.41.83-.65,1.23-.26.46-.53.91-.84,1.33-.34.46-1.08.39-1.35-.09-.12-.21-.28-.41-.37-.64-.32-.85-.61-1.71-.92-2.56-.25-.67-.53-1.32-1.1-1.79-.65-.51-1.32-.5-1.91.06-.42.4-.71.91-.9,1.47-.35.98-.66,1.97-1,2.96-.18.51-.39,1.02-.62,1.51-.18.42-.5.74-.84,1.03-.34.27-.55.26-.87-.03-.07-.06-.14-.14-.21-.21-.44-.49-.68-1.1-.86-1.71-.47-1.58-.89-3.18-1.34-4.77-.2-.7-.37-1.4-.61-2.09-.22-.65-.57-1.24-1.15-1.63-.3-.2-.64-.29-.97-.09-.3.18-.55.41-.73.73-.4.72-.67,1.47-.81,2.28-.04.23-.02.5-.33.61-.25-.19-.18-.46-.22-.69-.14-.93-.22-1.88-.42-2.79-.23-1.1-.53-2.18-.84-3.26-.65-2.28-1.57-4.46-2.7-6.54-1.01-1.84-2.12-3.62-3.43-5.27-1.36-1.71-3.04-3.28-4.73-4.66-4.52-3.69-11.99-9.1-24.64-9.1-.23,0-.33.1-.33.33-.02.61-.06,1.08-.07,1.69,0,.53,0,1.06,0,1.59-.04,1.47-.09,2.94-.13,4.42-.03,1.06-.05,2.11-.08,3.17-.03,1.16-.09,2.31-.12,3.47-.03,1.07-.05,2.14-.07,3.22,0,.32,0,.63-.02.95-.04,1.27-.1,2.55-.14,3.82-.03,1.11-.04,2.22-.08,3.33-.04,1.16-.1,2.31-.15,3.47-.02.32,0,.63,0,.95-.04,1.19-.09,2.38-.13,3.57-.03.98-.03,1.95-.06,2.93-.03,1.04-.09,2.08-.13,3.12-.03.74-.06,1.49-.09,2.23-.03,1.01-.06,2.02-.1,3.03-.03.89-.06,1.78-.09,2.68-.03.96-.04,1.92-.08,2.88-.05,1.42-.1,2.84-.17,4.27-.06,1.36-.14,2.71-.21,4.06,0,.06-.05.13-.08.2-.1-.13-.13-.26-.13-.38-.02-.76-.03-1.52-.03-2.28,0-2.4,0-4.8.03-7.2,0-1.13.1-2.25.1-3.37.02-3.86.02-7.72.04-11.57.02-3.84-.03-7.68.06-11.52.09-4.02.03-8.05.02-12.07,0-2.68-.16-8.18-.19-8.75-.02-.43-.09-.85-.16-1.28-.02-.14-.08-.29-.15-.42-.12-.22-.43-.36-.68-.31-.26.06-.43.19-.49.48-.16.68-.27,1.36-.33,2.05-.14,1.8-.45,12.68-.45,13.34v41.87c0,.21.06.43-.18.6-.2-.17-.14-.39-.14-.6,0-1.61,0-3.21,0-4.82,0-4.16,0-8.31,0-12.47,0-9.21.02-18.41.03-27.62,0-1.59.02-3.18.02-4.77.02-1.97.04-3.22.04-5.18,0-.65-.04-1.29-.07-1.93-.02-.39-.26-.65-.59-.68-.3-.02-.57.19-.67.54-.05.19-.07.39-.08.59-.03,1.14-.06,1.55-.09,2.7-.02,1.01-.06,2.02-.09,3.03,0,.09-.03.2-.04.29-.02.32-.06.62-.06.94-.02.39,0,.8,0,1.19-.02,1.29-.06,2.58-.08,3.87-.02,1.24-.05,2.48-.08,3.72v.1c-.06,1.22-.12,2.44-.15,3.67-.06,2.59-.03,5.2-.23,7.78-.09,1.14-.1,2.28-.11,3.42-.02,1.21,0,2.41,0,3.63,0,.71-.22,1.4-.1,2.12.04.21.04.43.04.65,0,.16,0,.33-.27.42,0-.19,0-.33,0-.47.05-.69.16-1.38.02-2.07-.02-.11-.02-.23-.02-.35,0-2.47,0-4.94.02-7.4,0-.47.1-.92.11-1.38.02-.83,0-1.66,0-2.48.02-.92.1-1.85.11-2.78.03-1.4.03-2.81.05-4.22.02-1.81.05-3.61.08-5.41.03-2.18.09-4.37.08-6.55,0-1.51.02-2.41-.26-3.9-.06-.32-.18-.64-.32-.93-.18-.37-.51-.32-.72.05-.04.07-.11.24-.13.32-.12.47-.18.79-.23,1.26-.19,1.64-.26,2.68-.38,4.34-.16,2.37-.24,4.76-.35,7.14-.03.61-.06,1.22-.1,1.84-.05.84-.1,1.68-.14,2.52-.06,1.39-.1,2.78-.15,4.16-.04,1.04-.1,2.08-.14,3.12-.03.88-.02,1.76-.06,2.63-.03.81-.1,1.62-.13,2.43-.05,1.01-.09,2.01-.13,3.02-.06,1.57-.13,3.14-.19,4.71-.06,1.55-.1,3.11-.14,4.66-.02.62-.03,1.22-.06,1.84-.05.86-.12,1.71-.15,2.57-.05,1.37-.07,2.74-.11,4.12-.02.58-.03,1.15-.06,1.73-.06,1.29-.14,2.58-.22,3.86-.09,1.54-.17,3.07-.26,4.6,0,.18,0,.39-.23.61-.03-.24-.07-.42-.08-.58,0-.56,0-1.13.02-1.69.02-3.06.05-6.13.08-9.19,0-.86.1-1.72.1-2.58.02-2.48.03-4.97.05-7.45.02-2.45.05-4.9.06-7.35,0-2.29-.02-4.57,0-6.85,0-.76.08-1.52.09-2.28.02-1.67,0-3.34,0-5.01,0-1.94.02-3.87,0-5.81,0-.84-.07-1.69-.1-2.52-.02-.89-.02-1.79-.05-2.68-.02-.74-.06-1.49-.1-2.23-.06-1.04-.14-1.39-.22-2.42-.04-.4-.16-.82-.32-1.19-.21-.46-.82-.58-1.11-.24-.2.23-.38.53-.43.81-.16.93-.26,1.86-.37,2.8-.1.94-.14,1.18-.2,2.12-.07,1.17-.1,2.34-.16,3.51-.05.99-.1,1.99-.14,2.97-.05,1.55-.08,3.11-.14,4.66-.04,1.22-.13,2.44-.17,3.67-.05,1.75-.06,3.51-.1,5.26-.05,1.97-.1,3.93-.15,5.9-.02.63,0,1.26,0,1.88-.04,1.7-.09,3.41-.14,5.11v.5c-.05,1.44-.1,2.88-.14,4.31-.02.98-.02,1.96-.05,2.93-.04.99-.12,1.98-.17,2.97-.07,1.62-.13,3.24-.19,4.86-.02.56-.06,1.12-.1,1.68-.05.95-.09,1.92-.14,2.87-.06.88-.12,1.75-.18,2.63-.03.38-.06.76-.12,1.14-.02.11-.04.3-.16.31-.24,0-.23-.42-.25-.62-.08-1.17-.15-2.34-.22-3.52-.03-.5-.06-.99-.07-1.48-.05-1.42-.08-2.85-.13-4.27-.05-1.21-.14-2.41-.17-3.62-.04-1.79-.03-3.57-.04-5.36,0-.17,0-.33,0-.5-.16-1.83,0-3.67-.14-5.5-.13-1.66,0-3.34-.09-5.01-.12-2.07-.07-4.14-.1-6.2-.02-1.92-.03-3.84-.05-5.76,0-.47.02-.93,0-1.39-.05-1.37-.11-2.74-.16-4.11-.06-1.67-.07-3.34-.14-5.01-.08-2.08-.14-3.59-.51-5.65-.02-.11-.02-.24-.04-.35-.09-.3-.14-.61-.28-.88-.32-.59-1.01-.57-1.33.02-.11.21-.21.46-.25.7-.13.78-.24.99-.3,1.77-.12,1.5-.21,3-.3,4.5-.05.84-.05,1.69-.07,2.53-.02.86-.04,1.72-.08,2.58-.06,1.19-.15,2.37-.19,3.56-.06,1.87-.09,3.74-.12,5.61-.03,1.44-.06,2.88-.09,4.32-.03,1.72-.07,3.45-.1,5.16-.02,1.39-.04,2.78-.06,4.16,0,.05,0,.1-.02.15-.18,1.35-.1,2.7-.17,4.06-.05.91-.04,1.82-.08,2.73-.03.79-.12,1.58-.16,2.37-.09,1.77-.13,3.54-.26,5.31-.14,1.92-.36,3.82-.54,5.73,0,.08,0,.17-.06.24-.05.07-.14.17-.21.17-.07,0-.17-.11-.19-.19-.04-.14-.04-.29-.05-.44-.07-.95-.14-1.92-.22-2.87-.06-.73-.16-1.44-.19-2.17-.09-1.87-.15-3.74-.21-5.6-.04-1.19-.07-2.38-.09-3.57-.02-2.32-.02-4.64-.03-6.95-.02-4.75-.04-9.5-.07-14.25,0-1.73-.06-3.48-.1-5.21-.02-1.32-.02-2.64-.06-3.97-.02-.73-.08-1.45-.14-2.18-.06-.8-.1-1.23-.23-2.03-.06-.41-.26-.82-.48-1.17-.25-.41-.73-.43-1.05-.09-.19.2-.35.49-.42.76-.16.61-.31,1.22-.38,1.84-.22,2.18-.42,3.96-.59,6.13-.08.97-.1,1.95-.16,2.93-.02.45-.05.89-.07,1.34-.07,1.14-.17,2.28-.23,3.41-.06,1.15-.1,2.31-.16,3.46-.04.81-.1,1.62-.13,2.43-.08,1.72-.14,3.44-.22,5.15-.08,1.58-.18,3.17-.27,4.75-.1,1.66-.13,3.33-.29,4.99-.16,1.56-.22,3.13-.34,4.7,0,.15,0,.3-.21.35-.24-.12-.19-.35-.21-.56-.08-.97-.15-1.95-.23-2.92-.15-1.88-.34-3.75-.46-5.64-.12-1.78-.18-3.56-.27-5.35-.02-.43-.02-.86-.06-1.29-.05-.59-.14-1.17-.18-1.77-.05-.65-.04-1.32-.08-1.98-.12-2.01-.23-4.03-.38-6.04-.12-1.65-.22-3.3-.51-4.94-.04-.22-.14-.44-.26-.63-.37-.53-.88-.55-1.24-.02-.23.35-.42.76-.53,1.16-.22.81-.4,1.64-.57,2.46-.18.86-.36,1.72-.49,2.58-.28,1.78-.54,3.56-.8,5.35-.06.36-.1.73-.14,1.08-.1.97-.18,1.95-.3,2.91-.15,1.23-.33,2.46-.5,3.69-.26,1.84-.54,3.67-.8,5.5,0,.05,0,.11-.03.14-.06.07-.14.18-.19.17-.07,0-.17-.1-.2-.18-.05-.13-.06-.29-.07-.44-.06-.62-.1-1.25-.18-1.88-.17-1.38-.36-2.75-.53-4.13-.13-.99-.23-1.97-.36-2.96-.17-1.29-.34-2.59-.54-3.88-.2-1.31-.41-2.62-.65-3.91-.1-.57-.3-1.12-.48-1.66-.13-.38-.35-.71-.7-.93-.23-.15-.45-.16-.69-.03-.41.2-.63.56-.83.95-.43.87-.6,1.82-.83,2.74-.22.88-.33,1.78-.51,2.68-.2,1.07-.44,2.14-.61,3.22-.21,1.28-.53,2.52-.97,3.73-.07.2-.14.41-.47.45-.1-.2-.22-.39-.28-.6-.27-.84-.55-1.7-.79-2.55-.34-1.22-.66-2.46-1-3.69-.28-1.02-.69-1.99-1.3-2.88-.82-1.16-2.49-1.2-3.4.02-.53.71-.91,1.49-1.21,2.32-.25.7-.44,1.42-.69,2.11-.22.62-.48,1.23-.77,1.82-.18.38-.56.38-.77.02-.16-.27-.29-.55-.41-.85-.23-.64-.42-1.29-.64-1.92-.23-.65-.49-1.29-.96-1.83-.38-.43-.83-.74-1.38-.78-.8-.06-1.51.24-2,.88-.34.46-.59.99-.87,1.49-.22.39-.38.8-.61,1.19-.22.39-.51.5-.96.42-.43-.08-.69-.37-.9-.72-.24-.42-.44-.85-.66-1.28-.27-.54-.61-1.02-1.11-1.36-.48-.33-1.11-.32-1.55.07-.37.33-.74.65-1.08,1.01-.42.45-.93.68-1.53.68-1.17,0-2.33.03-3.5-.02-.06,0-.12,0-.18-.02v-1.93h-9.93v4.49h9.93v-1.32c1.34.07,2.69.05,4.04,0,.65-.02,1.22-.25,1.7-.69.38-.35.74-.71,1.1-1.06.25-.24.34-.24.54.03.18.24.33.5.48.75.3.53.56,1.09.88,1.61.63,1.02,2.12,1.34,3.04.76.42-.27.69-.65.92-1.08.22-.43.4-.88.62-1.29.16-.31.34-.62.56-.88.6-.71,1.24-.65,1.69.16.26.47.45.99.65,1.5.21.58.34,1.17.57,1.73.17.43.37.87.66,1.21.61.73,1.56,1.05,2.36.11.22-.24.43-.52.54-.82.45-1.15.87-2.32,1.27-3.49.22-.65.46-1.28.83-1.84.19-.29.47-.55.75-.76.28-.21.41-.19.65.06.23.25.47.52.63.82.57,1.06.9,2.2,1.2,3.35.31,1.2.61,2.4.95,3.6.21.71.39,1.44.84,2.06.17.24.38.47.6.64.36.28.94.23,1.26-.1.23-.24.46-.49.6-.77.23-.47.45-.97.56-1.47.39-1.73.74-3.46,1.09-5.19.13-.65.2-1.31.34-1.96.26-1.14.54-2.28.82-3.42.03-.15.07-.33.26-.29.1.02.22.18.26.3.09.32.13.65.19.97.14.78.32,1.55.43,2.34.25,1.75.48,3.51.71,5.27.15,1.17.27,2.33.42,3.5.14,1.14.28,2.26.42,3.4.05.36.12.72.17,1.08.12.8.22,1.61.37,2.4.07.39.19.77.3,1.15.1.35.37.51.7.54.33.03.62-.1.77-.42.14-.28.29-.57.37-.87.3-1.29.59-2.58.82-3.88.24-1.32.4-2.65.6-3.97.02-.17.04-.33.06-.49.13-1.1.24-2.21.4-3.3.17-1.21.23-2.43.44-3.64.37-2.08.62-4.19.94-6.28.1-.69.26-1.36.4-2.04.02-.13.1-.24.15-.36.04,0,.09.02.13.02.02.13.06.27.06.41.03.59.05,1.19.09,1.78.05.65.14,1.32.19,1.97.05.66.06,1.32.1,1.98.06,1.02.12,2.05.17,3.07.04.84.06,1.69.12,2.52.05.68.14,1.35.18,2.03.1,1.57.18,3.13.27,4.7.1,1.51.19,3,.3,4.51.08,1.1.18,2.21.29,3.31.12,1.12.25,2.24.42,3.34.07.47.24.93.41,1.37.09.21.29.39.48.54.28.21.45.17.71-.04.29-.24.48-.55.54-.92.12-.69.25-1.36.31-2.06.19-1.94.37-3.89.53-5.83.06-.74.06-1.49.1-2.23.06-1.22.14-2.44.22-3.66.05-1.06.1-2.11.14-3.17.09-1.78.18-3.57.27-5.35.04-.84.1-1.68.14-2.52.03-.63.06-1.25.09-1.88.02-.68.03-1.35.07-2.03.04-.69.11-1.39.15-2.07.09-1.47.15-2.93.25-4.41.08-1.22.18-2.44.27-3.66.05-.59.1-1.18.17-1.77.02-.13,0-.31.25-.35.03.06.09.13.1.2.03.54.06,1.09.07,1.63.02,1.01.02,2.02.04,3.03.05,1.81.12,3.6.17,5.41.02.78,0,1.55,0,2.33.02,4.07.06,8.14.07,12.22,0,1.84-.02,3.67,0,5.51.02,1.96.07,3.9.12,5.86.02,1.13.04,2.25.1,3.37.09,1.62.08,3.24.29,4.85.15,1.14.15,2.17.45,3.3.11.43.27.85.47,1.24.18.33.5.57.89.5.37-.06.62-.34.78-.69.34-.74.48-1.4.58-2.2.16-1.32.29-2.63.42-3.95.1-1.14.17-2.28.24-3.41.06-.91.08-1.82.13-2.73.05-.84.13-1.68.15-2.52.04-1.01.02-2.02.06-3.03.05-1.34.13-2.67.17-4.01.03-1.13.03-2.25.06-3.37.04-1.79.09-3.57.14-5.35.05-1.81.1-3.6.14-5.41.05-1.73.09-3.48.14-5.21.03-1.25.06-2.52.1-3.77.06-1.57.13-3.14.18-4.71.03-.99.03-1.99.06-2.97,0-.2,0-.4.29-.52.06.17.16.33.17.5.05.95.08,1.92.1,2.87.02,1.16.03,2.32.06,3.47.03,1.58.07,3.18.11,4.76.03,1.17.06,2.35.1,3.52.02,1.09.05,2.18.06,3.27.02,1.85.02,3.71.07,5.56.04,1.73-.13,3.48.1,5.2,0,.06,0,.13,0,.2.02,1.62.05,3.24.07,4.86.02,1.88.04,3.78.06,5.66,0,.28-.02.56,0,.84.07,2,.02,4.01.2,6,.08.92.06,1.85.1,2.78.06,1.25.13,2.51.22,3.76.08,1.09.14,2.97.74,4.53.25.66,1.04.75,1.45.17.09-.12.14-.26.19-.4.3-.8.4-1.34.49-2.18.16-1.53.37-3.06.36-4.6,0-.36.06-.73.09-1.09.05-.51.12-1.02.14-1.53.05-1.02.07-2.05.11-3.07.02-.58.06-1.16.09-1.73.03-.88.03-1.75.06-2.63.04-1.06.1-2.11.14-3.17.06-1.51.12-3,.16-4.51.03-1.31.04-2.61.06-3.92.02-1.1.02-2.18.03-3.27,0-.13,0-.27.02-.39.14-.76.12-1.51.09-2.28v-.5c.06-1.36.13-2.71.16-4.07.05-2.26.07-4.53.11-6.8,0-.08,0-.17.02-.24.18-1.3.1-2.61.17-3.91.05-.86.03-1.72.05-2.58.02-.65.05-1.29.07-1.93.06-1.42.11-2.84.16-4.26.02-.44.06-.87.2-1.39.2.32.24.59.25.86.02.98.07,1.96.06,2.93-.06,6.55.11,13.11-.1,19.66-.08,2.43,0,4.86-.06,7.29-.1,4.02-.04,8.04-.06,12.07,0,1.77-.06,3.54-.06,5.31,0,2.4.05,4.8.06,7.2,0,2.35-.02,4.42.34,6.76.02.09.02.2.04.29.08.32.3.5.61.58.31.08.56-.06.7-.34.13-.29.25-.61.33-.92.07-.31.09-.62.12-.94.13-1.35.24-2.42.34-3.78.08-1.01.12-2.01.18-3.02.07-1.22.14-2.44.21-3.67.05-.94.07-1.88.12-2.82.05-.99.14-1.98.18-2.97.05-1.21.03-2.41.11-3.62.12-1.73.18-3.47.18-5.2,0-.71.02-1.42.06-2.13.05-.99.13-1.98.17-2.97.03-.84.02-1.69.05-2.53.04-1.25.09-2.51.14-3.77.02-.39.14-.8.1-1.18-.1-.88.02-1.75.01-2.63,0-.17.06-.34.08-.5.26.26.25.57.25.85,0,.8,0,1.58-.02,2.38-.04,1.64-.09,3.27-.12,4.91-.04,1.85-.08,3.71-.1,5.56-.03,3.19-.03,6.39-.06,9.59-.02,2.37.02,4.73-.05,7.1-.05,1.48-.07,2.97.06,4.46.1,1.06,0,2.15.02,3.22.02,1.52.05,2.74.09,4.27,0,.36.06.73.11,1.09.06.41.41.7.78.69.31,0,.54-.25.62-.66.02-.15.03-.3.04-.44.03-.48.05-.96.09-1.43.05-.68.19-3.3.22-4.1.02-.81.05-1.62.09-2.43.05-.99.12-1.98.14-2.97.03-1.14.02-2.28.04-3.41.02-.95.04-1.88.06-2.83,0-.45,0-.89.02-1.34.02-.38.06-.76.09-1.14.02-.29.07-.59.09-.88.02-.47,0-.92.02-1.39.02-.36.09-.72.1-1.08.02-.39,0-.8,0-1.19,0-.08.04-.15.06-.23.09.16.11.3.1.45,0,.71-.05,1.43-.03,2.14.03,2.23-.1,4.46.05,6.7.06.99,0,1.99,0,2.98,0,1.9.02,3.81.05,5.71.02,1.01.06,2.02.1,3.03.05,1.21.13,1.46.21,2.66.05.61.16,1.21.27,1.81.06.31.44.62.69.64.26.02.61-.24.72-.58.1-.32.18-.64.2-.96.06-.61.15-2,.18-2.08.11.4.17.79.2,1.17.05.54.08,1.3.14,1.84.02.16.08.32.16.47.13.23.35.36.62.34.24-.02.44-.16.52-.4.1-.32.2-.63.26-.95.06-.41.38-4.02.47-5.79.06-1.06.08-2.11.14-3.17.05-.95.14-1.91.18-2.87.07-1.64.1-3.27.18-4.91.04-.91.11-1.81.15-2.72.05-1.24.09-2.48.13-3.71.05-1.58.09-3.18.14-4.76.02-.81.06-1.62.1-2.43.06-1.24.11-2.48.16-3.71,0-.23,0-.47,0-.69.02-1.01.05-2.02.08-3.03.03-1.06.07-2.11.11-3.18.04-1.02.1-2.05.14-3.07.03-.84.02-1.69.06-2.53.04-1.01.14-2.01.17-3.02.05-1.51.06-3.01.09-4.52.02-.68.05-1.36.1-2.03.06-.88.16-1.74.2-2.62.04-.86.03-1.72.05-2.58,0-.09.03-.17.06-.25.11.26.15.51.15.77v3.27c-.02,3.78-.05,7.55-.07,11.32,0,.34.09.45.43.46,1.08.03,2.1.28,3.13.61,1.32.41,2.44,1.15,3.48,2.02,1.22,1.02,2.11,2.31,2.76,3.75.39.86.7,1.75.81,2.7.1.91.18,1.84.09,2.77-.13,1.18-.42,2.31-.9,3.38-.96,2.12-2.44,3.81-4.47,4.94-.81.45-1.69.82-2.59,1.06-.74.21-1.52.44-2.33.36-.31-.03-.37.06-.38.38,0,.39,0,.8,0,1.19v18.28c0,1.73.08,3.56.07,5.29,0,.35.06.46.37.46.75,0,1.64-.06,2.39-.13,1.3-.13,2.23-.19,3.44-.5.69-.18,1.41-.26,2.12-.43.61-.14,1.21-.32,1.8-.51,1.09-.35,2.21-.65,3.26-1.1,1.38-.6,2.73-1.29,4.07-1.99,2.37-1.25,4.51-2.85,6.51-4.62,2.1-1.85,3.9-3.97,5.51-6.27,1.36-1.94,2.5-4,3.47-6.17.9-2.03,1.57-4.14,2.09-6.3.3-1.29.47-2.6.69-3.9.11-.67.18-1.35.3-2.01.23-1.21.49-2.43.74-3.64.27-1.28.54-2.55.83-3.82.07-.32.2-.63.32-.94.03-.08.12-.2.18-.2.1,0,.2.07.28.14.05.04.06.12.09.17.32.62.53,1.28.7,1.96.23.93.48,1.85.75,2.77.33,1.11.65,2.22,1.04,3.31.21.57.52,1.1.96,1.55.92.93,2.11.91,2.98-.06.27-.31.51-.65.71-1.01.67-1.18,1-2.51,1.45-3.78.21-.59.48-1.15.73-1.73.02-.06.07-.11.12-.16.15-.16.32-.19.46,0,.14.18.29.37.37.58.31.85.59,1.72.89,2.57.26.73.57,1.43,1.17,1.93.44.38.98.61,1.59.49,1.06-.21,1.71-.92,2.17-1.85.29-.58.55-1.17.86-1.73.23-.43.56-.54,1-.38.19.07.4.19.53.35.25.31.46.64.64.99.33.65.66,1.28,1.17,1.81.49.52,1.53.5,1.92.03.14-.17.31-.3.45-.47.63-.75,1.44-1.14,2.41-1.17.14,0,8.23-.44,11.38-.65v1.57h9.93v-4.49h-9.93v1.79l-.02.04Zm-41.63,2.42c-.11.85-.1,1.72-.18,2.57-.1,1-.18,2.01-.36,3-.21,1.19-.46,2.37-.78,3.53-.92,3.23-2.28,6.28-4.23,9.01-.77,1.07-1.57,2.12-2.4,3.15-.39.49-.87.9-1.31,1.35-.48.5-.96,1-1.44,1.5-.19.2-.41.36-.62.54-.03-.02-.06-.05-.09-.06.02-.08.02-.18.06-.24,1.41-1.78,2.49-3.78,3.59-5.75.56-1.01,1.03-2.07,1.49-3.13.4-.92.74-1.88,1.09-2.82.14-.4.26-.82.35-1.24.03-.14-.02-.3-.13-.44-.16.35-.32.71-.47,1.07-1.05,2.45-2.29,4.8-3.78,7.01-.65.97-1.41,1.87-2.29,2.66-.05.05-.1.11-.15.13-.09.02-.21.04-.26,0-.05-.05-.06-.19-.02-.26.1-.21.25-.39.35-.6.39-.78.78-1.57,1.17-2.35.58-1.15,1.17-2.29,1.76-3.44.07-.14.12-.3.14-.48-.7.82-1.17,1.8-1.79,2.66-.63.88-1.25,1.78-1.91,2.65-.65.84-1.23,1.75-2.01,2.5.23-.88.76-1.6,1.11-2.41.36-.84.77-1.65,1.16-2.46.38-.79.78-1.58,1.18-2.37l-.1-.07c-.53.62-1.05,1.24-1.58,1.86-.75.9-1.45,1.57-1.83,1.7.03-.15.03-.28.08-.38.74-1.51,1.48-3.03,2.21-4.54.04-.08.03-.17.05-.26-.03-.02-.06-.03-.09-.06-.33.4-.65.8-.98,1.19-.34.4-.7.8-1.05,1.18-.35.39-.71.78-1.08,1.16-.36.36-.65.81-1.12,1.05-.03-.02-.06-.05-.1-.07.06-.12.11-.25.19-.36,1.37-1.91,2.53-3.95,3.72-5.97.4-.69.83-1.35,1.23-2.03.33-.55.65-1.11.97-1.67.08-.15.21-.3.07-.57-.17.17-.33.3-.45.46-1.25,1.66-2.5,3.32-3.75,4.98-.19.25-.4.5-.6.75-.04-.02-.08-.04-.13-.06.02-.11.02-.24.08-.32.8-1.36,1.37-2.81,1.97-4.27.06-.13.14-.26.2-.4.06-.14.1-.28-.13-.41-.37.25-.56.69-.85,1.02-.31.35-.58.72-.88,1.07-.31.36-.64.71-.96,1.07-.3.35-.6.7-.9,1.05-.3.35-.62.69-.93,1.03-.3.33-.49.77-.95.99-.11-.21,0-.34.06-.48.5-1.21.99-2.41,1.49-3.62.37-.88.74-1.77,1.1-2.65.1-.23.14-.48.2-.73-.34.21-.42.61-.58.92-1.05,2.12-2.48,3.97-3.91,5.83-.17.22-.34.48-.72.56.43-.93.84-1.8,1.24-2.67.39-.86.86-1.69,1.22-2.69-.47.2-.6.56-.83.81-.25.27-.46.57-.69.84-.25.29-.5.57-.74.86-.23.28-.45.57-.68.85-.23.28-.46.56-.7.83-.22.26-.35.62-.79.69.26-.45.51-.89.77-1.34.27-.47.54-.95.82-1.41.27-.46.57-.9.81-1.36.24-.46.59-.85.78-1.45-.43.2-.62.49-.85.74-.66.76-1.31,1.52-1.97,2.28-.14.15-.32.26-.57.46.05-.5.33-.76.47-1.07.14-.32.31-.61.46-.93.16-.32.3-.66.46-.99.14-.3.31-.59.49-.94-.35-.04-.45.17-.58.32-.63.67-1.27,1.34-1.91,2-.07.08-.18.12-.3.15.22-.74.79-1.26,1.16-1.91.38-.68.82-1.32,1.22-1.99.38-.64.89-1.2,1.19-1.88-.03-.02-.07-.06-.1-.08-.29.34-.61.66-.89,1.01-.29.35-.57.73-.85,1.09-.28.35-.51.76-.9.99-.03-.02-.06-.04-.1-.06.06-.13.1-.25.17-.38.36-.65.77-1.27,1.08-1.95.74-1.59,1.18-3.26,1.19-5.03,0-1.25-.02-2.48-.31-3.7-.31-1.34-.72-2.65-1.38-3.86-.25-.46-.25-.51-.23-.89.82,1.06,1.37,2.25,2.16,3.26.03-.02.07-.03.1-.05-.08-.22-.14-.45-.25-.65-.43-.91-.87-1.81-1.33-2.71-.72-1.43-1.46-2.85-2.19-4.28-.04-.09-.06-.17-.03-.32.07.06.17.11.22.19.57.85,1.14,1.7,1.69,2.56.57.91,1.12,1.83,1.68,2.74.14.22.31.42.46.61.21-.09.14-.21.1-.34-.42-1.14-.85-2.29-1.28-3.44-.04-.12-.06-.24-.08-.36.23-.07.3.08.38.2.43.73.86,1.45,1.28,2.18.68,1.17,1.36,2.34,2.04,3.51.03.05.09.08.15.13.13-.2.02-.35-.04-.49-.37-.87-.74-1.73-1.09-2.6-.2-.49-.39-.98-.58-1.47-.02-.06,0-.15,0-.25.45.11.64.49.93.74.31.27.6.57.88.87.26.28.42.65.85.97-.03-.22-.03-.35-.07-.45-.5-1.38-1-2.77-1.51-4.15-.15-.4-.33-.79-.5-1.18-.07-.17-.21-.35-.03-.6.52.38.74.99,1.13,1.45.39.47.74.97,1.1,1.47.36.5.65,1.04,1.06,1.57.08-.35.08-.34-.4-1.37-.21-.45-.42-.9-.57-1.36-.14-.45-.53-.8-.55-1.31.26-.08.38.07.48.2.38.51.8,1.02,1.13,1.57.88,1.46,1.65,2.97,2.28,4.56.38.99.77,1.96,1.17,2.94.08.2.14.45.49.47-.54-3.96-1.87-7.62-3.63-11.14.04-.02.07-.04.11-.06.06.06.14.12.18.2.45.73.9,1.46,1.33,2.2.62,1.06,1.21,2.12,1.82,3.19.1.17.25.32.42.45-.14-.84-.54-1.58-.79-2.37-.26-.8-.57-1.58-.86-2.37-.28-.78-.54-1.56-.82-2.33-.29-.78-.59-1.56-.82-2.4.09.05.19.08.26.15.1.1.18.24.26.36,1.08,1.48,2.15,2.96,3.23,4.45.11.15.26.28.43.39-.23-.86-.69-1.62-1.01-2.43-.34-.81-.68-1.62-1.02-2.42-.35-.82-.72-1.63-1.07-2.45-.34-.8-.68-1.61-1.05-2.48.15.05.26.06.33.12.21.2.41.43.61.64.98,1.05,1.77,2.22,2.37,3.52.62,1.33,1.17,2.69,1.74,4.04.27.65.52,1.32.76,1.99.22.62.42,1.25.62,1.88.29.96.57,1.93.84,2.91.14.48.22.96.35,1.44.05.18.15.35.27.52.08-.41.08-.8-.06-1.2-.14-.42-.2-.87-.32-1.29-.44-1.56-.87-3.11-1.34-4.67-.22-.73-.52-1.42-.8-2.13-.46-1.17-.9-2.34-1.38-3.49-.44-1.03-.93-2.04-1.4-3.07-.05-.11-.07-.24-.11-.36.03-.02.06-.04.09-.06.07.09.17.16.21.25.74,1.31,1.47,2.62,2.21,3.93.9,1.59,1.82,3.18,2.72,4.78.55.98,1.06,1.98,1.6,2.96.14.27.31.53.57.76-.02-.11-.02-.23-.06-.33-.46-1.1-.95-2.18-1.41-3.27-.64-1.54-1.26-3.09-1.9-4.64-.41-1.02-.84-2.04-1.26-3.06-.13-.3-.3-.59-.44-.88-.04-.08-.05-.17-.02-.28.75.69,1.25,1.58,1.86,2.39.61.8,1.17,1.64,1.73,2.48.57.85,1.1,1.72,1.7,2.55-.58-1.45-1.33-2.82-1.97-4.24-.65-1.43-1.31-2.87-1.9-4.37.09.07.2.13.27.21,1.29,1.67,2.54,3.37,3.62,5.2.93,1.55,1.71,3.17,2.32,4.87.29.8.59,1.58.82,2.4.27.99.5,1.99.68,3,.18,1.02.3,2.06.4,3.1.12,1.36.26,2.73.08,4.11h.06Z"/>
        <path class="cls-2" d="m74.76,35.15c0,.35.21.64.46.64h2.77v-1.28h-2.77c-.26,0-.46.28-.46.64Z"/>
        <path class="cls-2" d="m80.07,33.49h-1.7v3.18h1.7v-3.18Z"/>
        <path class="cls-5" d="m253.7,33.53h-1.7v3.18h1.7v-3.18Z"/>
        <path class="cls-5" d="m256.83,34.42h-2.77v1.28h2.77c.26,0,.46-.28.46-.64s-.21-.64-.46-.64Z"/>
      </g>
    </g>
  </g>
</svg>