<?xml version="1.0" encoding="UTF-8"?>
<svg id="Capa_2" data-name="Capa 2" xmlns="http://www.w3.org/2000/svg" xmlns:xlink="http://www.w3.org/1999/xlink" viewBox="0 0 229.26 92.12">
  <defs>
    <style>
      .cls-1 {
        fill: #1e2741;
      }

      .cls-1, .cls-2, .cls-3, .cls-4, .cls-5, .cls-6 {
        stroke-width: 0px;
      }

      .cls-2 {
        fill: url(#linear-gradient);
      }

      .cls-4 {
        fill: #f6a500;
      }

      .cls-5 {
        fill: #e20613;
      }

      .cls-6 {
        fill: #f39700;
      }
    </style>
    <linearGradient id="linear-gradient" x1="7.34" y1="46.06" x2="221.6" y2="46.06" gradientUnits="userSpaceOnUse">
      <stop offset=".41" stop-color="#e20613"/>
      <stop offset=".42" stop-color="#e51d10"/>
      <stop offset=".47" stop-color="#ec5709"/>
      <stop offset=".5" stop-color="#f18104"/>
      <stop offset=".53" stop-color="#f49b01"/>
      <stop offset=".55" stop-color="#f6a500"/>
    </linearGradient>
  </defs>
  <g id="Capa_2-2" data-name="Capa 2">
    <g>
      <g>
        <path class="cls-6" d="m145.96,44.92c0,.81-.61,1.45-1.38,1.45-.84,0-1.49-.67-1.45-1.53.04-.84.67-1.37,1.52-1.44.7-.06,1.31.7,1.3,1.52Z"/>
        <path class="cls-3" d="m164.92,54.39c-.03-.19-.02-.36.23-.47.04.24-.08.36-.25.45,0,0,.02.02.02.02Z"/>
        <path class="cls-1" d="m164.9,54.38s0,.02,0,.04c0,0,.01-.01.02-.02l-.02-.02Z"/>
        <path class="cls-2" d="m209.17,43.95c-3.45.12-12.86.64-14.74.71-.94.03-1.83.28-2.55.95-.43.4-.84.8-1.26,1.21-.37.35-.57.36-.86-.05-.27-.39-.49-.82-.7-1.25-.38-.77-.76-1.52-1.41-2.12-1.43-1.32-3.31-1.06-4.29.63-.29.5-.52,1.05-.81,1.56-.33.58-.66,1.16-1.05,1.69-.42.58-1.35.49-1.69-.11-.15-.27-.35-.52-.46-.81-.4-1.08-.76-2.17-1.15-3.25-.31-.85-.66-1.68-1.38-2.27-.81-.65-1.65-.63-2.39.08-.53.51-.89,1.16-1.13,1.86-.44,1.24-.82,2.5-1.25,3.75-.23.65-.49,1.29-.77,1.92-.23.53-.62.94-1.05,1.3-.42.34-.69.33-1.09-.04-.09-.08-.17-.18-.26-.27-.55-.62-.85-1.39-1.08-2.17-.59-2.01-1.12-4.03-1.68-6.05-.25-.89-.46-1.78-.76-2.65-.28-.82-.71-1.57-1.44-2.07-.38-.26-.8-.37-1.21-.11-.37.23-.69.52-.91.92-.5.91-.84,1.86-1.01,2.89-.05.29-.03.64-.41.77-.31-.24-.23-.58-.28-.88-.17-1.18-.28-2.38-.53-3.54-.29-1.39-.66-2.77-1.05-4.13-.82-2.89-1.96-5.66-3.38-8.29-1.26-2.33-2.65-4.59-4.29-6.68-1.7-2.17-3.8-4.16-5.92-5.91C139.27,6.86,129.92,0,114.09,0c-.29,0-.41.13-.41.42-.02.77-.07,1.37-.09,2.14-.01.67,0,1.34,0,2.02-.05,1.87-.11,3.73-.16,5.6-.04,1.34-.06,2.68-.1,4.02-.04,1.47-.11,2.93-.15,4.4-.04,1.36-.06,2.72-.09,4.08,0,.4,0,.8-.02,1.2-.05,1.61-.12,3.23-.17,4.84-.04,1.41-.05,2.81-.1,4.22-.05,1.47-.13,2.93-.19,4.4-.02.4.01.8,0,1.2-.05,1.51-.11,3.02-.16,4.53-.04,1.24-.04,2.47-.08,3.71-.04,1.32-.11,2.64-.16,3.96-.04.94-.08,1.89-.11,2.83-.04,1.28-.08,2.56-.13,3.84-.04,1.13-.08,2.26-.11,3.4-.04,1.22-.05,2.43-.1,3.65-.06,1.8-.13,3.6-.21,5.41-.08,1.72-.17,3.44-.26,5.15,0,.08-.06.17-.1.25-.12-.17-.16-.33-.16-.48-.02-.96-.04-1.93-.04-2.89,0-3.04,0-6.09.04-9.13.01-1.43.12-2.85.13-4.27.03-4.89.02-9.79.05-14.68.03-4.87-.04-9.74.07-14.61.11-5.1.04-10.21.02-15.31-.01-3.4-.2-10.37-.24-11.1-.03-.54-.11-1.08-.2-1.62-.03-.18-.1-.37-.19-.53-.15-.28-.54-.46-.85-.39-.32.07-.54.24-.62.61-.2.86-.34,1.72-.41,2.6-.17,2.28-.56,16.08-.56,16.92,0,15.44,0,30.87,0,46.31,0,2.27,0,4.54,0,6.8,0,.26.08.55-.23.76-.25-.22-.18-.5-.18-.76,0-2.04.01-4.07.01-6.11,0-5.27-.01-10.54,0-15.81.01-11.68.03-23.35.04-35.03,0-2.02.02-4.03.03-6.05.02-2.5.05-4.08.05-6.57,0-.82-.05-1.63-.09-2.45-.03-.5-.32-.83-.74-.86-.37-.03-.72.24-.84.69-.06.24-.09.5-.1.75-.04,1.45-.07,1.97-.11,3.42-.03,1.28-.07,2.56-.11,3.84,0,.12-.04.25-.05.37-.03.4-.07.79-.08,1.19-.02.5,0,1.01-.01,1.51-.03,1.64-.07,3.27-.1,4.91-.03,1.57-.06,3.15-.1,4.72,0,.04,0,.08,0,.13-.07,1.55-.15,3.1-.19,4.65-.08,3.29-.04,6.59-.29,9.87-.11,1.44-.12,2.89-.14,4.34-.02,1.53,0,3.06.01,4.6.01.9-.28,1.78-.12,2.69.05.27.05.54.05.82,0,.2.01.42-.34.53,0-.24-.01-.42,0-.6.06-.87.2-1.75.02-2.63-.03-.14-.02-.29-.02-.44,0-3.13.01-6.26.03-9.39,0-.59.13-1.17.14-1.75.02-1.05-.01-2.1.01-3.14.03-1.17.12-2.35.14-3.52.04-1.78.04-3.57.06-5.35.03-2.29.06-4.58.1-6.86.04-2.77.11-5.54.1-8.31,0-1.91.03-3.06-.32-4.95-.07-.4-.22-.81-.4-1.18-.23-.47-.64-.4-.9.06-.05.09-.14.3-.16.4-.15.59-.22,1-.29,1.6-.24,2.08-.33,3.4-.47,5.5-.2,3.01-.3,6.04-.44,9.05-.04.78-.07,1.55-.12,2.33-.06,1.07-.13,2.13-.18,3.2-.07,1.76-.12,3.52-.19,5.28-.05,1.32-.13,2.64-.17,3.96-.04,1.11-.03,2.23-.07,3.34-.04,1.03-.12,2.05-.16,3.08-.06,1.28-.11,2.55-.16,3.83-.08,1.99-.17,3.98-.24,5.97-.07,1.97-.12,3.94-.18,5.91-.02.78-.04,1.55-.08,2.33-.06,1.09-.15,2.17-.19,3.26-.06,1.74-.09,3.48-.14,5.22-.02.73-.04,1.46-.08,2.2-.08,1.63-.18,3.27-.27,4.9-.11,1.95-.21,3.89-.33,5.84-.01.23,0,.49-.29.77-.04-.31-.09-.53-.1-.74,0-.71.01-1.43.02-2.14.03-3.88.06-7.77.1-11.65.01-1.09.12-2.18.13-3.27.03-3.15.04-6.3.06-9.45.02-3.11.06-6.21.07-9.32,0-2.9-.02-5.8-.01-8.69,0-.96.1-1.93.11-2.89.02-2.12,0-4.24,0-6.36,0-2.46.02-4.91,0-7.37,0-1.07-.09-2.14-.12-3.2-.03-1.13-.03-2.27-.06-3.4-.03-.94-.07-1.89-.12-2.83-.07-1.32-.17-1.76-.28-3.07-.05-.51-.2-1.04-.4-1.51-.26-.58-1.02-.73-1.39-.3-.25.29-.47.67-.54,1.03-.2,1.18-.33,2.36-.46,3.55-.12,1.19-.18,1.5-.25,2.69-.09,1.48-.13,2.97-.2,4.45-.06,1.26-.13,2.52-.17,3.77-.06,1.97-.1,3.94-.17,5.91-.05,1.55-.16,3.1-.21,4.65-.06,2.22-.08,4.45-.13,6.67-.06,2.5-.13,4.99-.19,7.48-.02.8,0,1.6-.01,2.39-.05,2.16-.11,4.32-.17,6.48,0,.21,0,.42,0,.63-.06,1.82-.13,3.65-.18,5.47-.03,1.24-.02,2.48-.06,3.71-.05,1.26-.15,2.51-.21,3.77-.09,2.05-.16,4.11-.24,6.16-.03.71-.08,1.42-.12,2.13-.06,1.21-.11,2.43-.18,3.64-.07,1.11-.15,2.22-.23,3.33-.04.48-.08.96-.15,1.44-.02.14-.05.38-.2.39-.3.01-.29-.53-.31-.79-.1-1.49-.19-2.97-.27-4.46-.04-.63-.07-1.26-.09-1.88-.06-1.8-.1-3.61-.16-5.41-.06-1.53-.18-3.06-.21-4.59-.05-2.27-.04-4.53-.05-6.8,0-.21.01-.42,0-.63-.2-2.32.01-4.65-.17-6.98-.16-2.11,0-4.23-.11-6.35-.15-2.62-.09-5.25-.12-7.87-.02-2.43-.04-4.87-.06-7.3,0-.59.02-1.18,0-1.76-.06-1.74-.14-3.48-.2-5.21-.07-2.12-.09-4.24-.17-6.36-.1-2.64-.18-4.55-.64-7.16-.03-.14-.02-.3-.05-.44-.11-.38-.17-.78-.35-1.12-.4-.75-1.26-.72-1.66.03-.14.27-.26.58-.31.89-.16.99-.3,1.25-.38,2.25-.15,1.9-.26,3.8-.37,5.71-.06,1.07-.06,2.14-.09,3.21-.03,1.09-.05,2.18-.1,3.27-.07,1.51-.19,3.01-.24,4.52-.07,2.37-.11,4.74-.15,7.11-.04,1.83-.07,3.65-.11,5.48-.04,2.18-.09,4.37-.13,6.55-.03,1.76-.05,3.52-.08,5.28,0,.06,0,.13-.02.19-.23,1.71-.12,3.43-.21,5.15-.06,1.15-.05,2.31-.1,3.46-.04,1-.15,2.01-.2,3.01-.11,2.24-.16,4.49-.32,6.73-.17,2.43-.45,4.85-.68,7.27,0,.1-.01.22-.07.3-.06.09-.18.21-.26.21-.09,0-.21-.14-.24-.24-.05-.18-.05-.37-.06-.56-.09-1.21-.18-2.43-.28-3.64-.07-.92-.2-1.83-.24-2.75-.11-2.37-.19-4.74-.26-7.1-.05-1.51-.09-3.02-.11-4.53-.02-2.94-.02-5.88-.04-8.82-.03-6.03-.05-12.05-.09-18.08-.01-2.2-.08-4.41-.12-6.61-.03-1.68-.03-3.35-.08-5.03-.02-.92-.1-1.84-.17-2.76-.08-1.02-.13-1.56-.29-2.57-.08-.52-.32-1.04-.6-1.49-.32-.52-.91-.55-1.32-.11-.24.26-.44.62-.53.97-.2.77-.39,1.55-.47,2.34-.28,2.76-.52,5.02-.74,7.78-.1,1.23-.13,2.47-.2,3.71-.03.57-.06,1.13-.09,1.7-.09,1.44-.21,2.89-.29,4.33-.08,1.46-.13,2.93-.2,4.39-.05,1.03-.12,2.05-.17,3.08-.1,2.18-.18,4.36-.28,6.53-.1,2.01-.23,4.02-.34,6.03-.12,2.11-.16,4.22-.37,6.33-.2,1.98-.28,3.97-.42,5.96-.01.19,0,.38-.26.45-.3-.15-.24-.45-.26-.71-.1-1.23-.19-2.47-.29-3.7-.19-2.38-.42-4.76-.58-7.15-.15-2.26-.23-4.52-.34-6.79-.03-.54-.03-1.09-.08-1.63-.06-.75-.17-1.49-.22-2.24-.06-.83-.05-1.67-.1-2.51-.15-2.55-.29-5.11-.47-7.66-.15-2.09-.27-4.19-.64-6.26-.05-.28-.17-.56-.33-.8-.46-.67-1.1-.7-1.55-.02-.29.44-.52.96-.66,1.47-.28,1.03-.5,2.08-.72,3.12-.23,1.09-.45,2.18-.62,3.27-.35,2.26-.67,4.52-1,6.78-.07.46-.12.92-.17,1.37-.13,1.23-.23,2.47-.38,3.69-.19,1.56-.41,3.12-.63,4.68-.33,2.33-.67,4.65-1,6.98,0,.06,0,.14-.04.18-.07.09-.17.23-.24.22-.09,0-.21-.13-.25-.23-.06-.17-.07-.37-.09-.56-.08-.79-.13-1.59-.23-2.38-.21-1.75-.45-3.49-.66-5.24-.16-1.25-.29-2.5-.45-3.75-.21-1.64-.43-3.29-.67-4.92-.25-1.66-.51-3.32-.82-4.96-.13-.72-.37-1.42-.6-2.11-.16-.48-.44-.9-.88-1.18-.29-.19-.56-.2-.87-.04-.51.26-.79.71-1.04,1.21-.54,1.1-.75,2.31-1.04,3.48-.28,1.12-.42,2.26-.64,3.4-.25,1.36-.55,2.71-.77,4.08-.26,1.62-.66,3.2-1.21,4.73-.09.25-.17.52-.59.57-.12-.25-.27-.49-.35-.76-.34-1.07-.69-2.15-.99-3.24-.43-1.55-.83-3.12-1.25-4.68-.35-1.3-.86-2.53-1.63-3.65-1.02-1.47-3.12-1.52-4.25.03-.66.9-1.14,1.89-1.51,2.94-.31.89-.55,1.8-.87,2.68-.28.79-.6,1.56-.96,2.31-.23.48-.7.48-.96.03-.2-.34-.37-.7-.51-1.08-.29-.81-.52-1.64-.8-2.44-.29-.83-.61-1.64-1.2-2.32-.47-.54-1.04-.94-1.73-.99-1-.08-1.89.3-2.5,1.11-.43.58-.74,1.25-1.09,1.89-.27.5-.48,1.02-.76,1.51-.28.5-.64.63-1.2.53-.54-.1-.87-.47-1.12-.91-.3-.53-.55-1.08-.82-1.62-.34-.68-.76-1.29-1.39-1.73-.6-.42-1.39-.4-1.94.09-.46.42-.93.83-1.35,1.28-.53.57-1.17.86-1.92.86-1.46.01-2.92.04-4.38-.03-.07,0-.15-.01-.22-.02v-2.45H7.34v5.69h12.43v-1.67c1.68.09,3.37.06,5.06.01.81-.02,1.53-.32,2.13-.88.47-.44.92-.9,1.38-1.35.31-.31.43-.31.68.04.22.3.41.63.6.95.37.67.7,1.38,1.1,2.04.79,1.29,2.66,1.7,3.8.97.53-.34.87-.83,1.15-1.37.27-.54.5-1.11.78-1.64.2-.39.42-.78.7-1.11.75-.9,1.55-.83,2.12.2.33.6.57,1.25.81,1.9.26.73.43,1.49.71,2.2.21.54.46,1.1.83,1.53.77.92,1.95,1.33,2.96.14.27-.31.54-.66.68-1.04.56-1.46,1.09-2.94,1.59-4.43.27-.82.58-1.62,1.04-2.34.24-.37.59-.7.94-.97.35-.27.52-.24.81.08.29.32.59.66.79,1.04.71,1.34,1.13,2.79,1.5,4.25.39,1.52.76,3.05,1.19,4.56.26.9.49,1.83,1.05,2.61.21.3.47.59.75.81.45.35,1.18.29,1.58-.13.29-.3.57-.62.75-.98.29-.6.56-1.23.7-1.87.49-2.19.92-4.39,1.36-6.58.16-.82.25-1.66.43-2.48.32-1.45.68-2.89,1.02-4.34.04-.19.09-.42.32-.37.13.03.28.23.33.38.11.4.16.82.24,1.23.18.99.4,1.97.54,2.97.32,2.22.6,4.45.89,6.68.19,1.48.34,2.96.52,4.44.17,1.44.35,2.87.53,4.31.06.46.15.91.21,1.37.15,1.02.28,2.04.46,3.05.09.49.24.98.38,1.46.13.44.46.65.88.68.41.04.78-.13.97-.53.17-.36.37-.72.46-1.1.37-1.63.74-3.27,1.03-4.92.3-1.67.5-3.36.75-5.04.03-.21.05-.42.07-.62.16-1.4.3-2.8.5-4.19.22-1.53.29-3.08.55-4.62.46-2.64.78-5.31,1.18-7.97.13-.87.32-1.73.5-2.59.03-.16.13-.31.19-.46.05,0,.11.02.16.03.03.17.07.34.08.52.04.75.06,1.51.11,2.26.06.83.18,1.67.24,2.5.06.84.08,1.67.13,2.51.07,1.3.15,2.6.21,3.9.05,1.07.08,2.14.15,3.2.06.86.18,1.71.23,2.57.13,1.99.22,3.97.34,5.96.12,1.91.24,3.81.38,5.72.1,1.4.22,2.8.36,4.2.15,1.42.31,2.84.52,4.24.09.59.3,1.18.52,1.74.11.27.36.5.6.68.35.26.56.22.89-.05.36-.3.6-.7.68-1.17.15-.87.31-1.73.39-2.61.24-2.46.46-4.93.66-7.4.08-.94.08-1.89.13-2.83.08-1.55.18-3.09.27-4.64.07-1.34.12-2.68.18-4.02.11-2.26.23-4.53.34-6.79.05-1.07.12-2.13.17-3.2.04-.8.08-1.59.11-2.39.03-.86.04-1.71.09-2.57.05-.88.14-1.76.19-2.63.11-1.86.19-3.72.31-5.59.1-1.55.22-3.1.34-4.64.06-.75.13-1.5.21-2.25.02-.17.01-.39.31-.44.04.08.11.17.12.26.04.69.08,1.38.09,2.07.02,1.28.02,2.56.05,3.84.06,2.29.15,4.57.21,6.86.02.99,0,1.97,0,2.96.03,5.16.07,10.33.09,15.5.01,2.33-.02,4.66,0,6.99.03,2.48.09,4.95.15,7.43.03,1.43.05,2.85.12,4.28.11,2.05.1,4.11.36,6.15.19,1.45.19,2.75.56,4.18.14.54.34,1.08.59,1.57.22.42.62.72,1.12.63.46-.08.78-.43.98-.87.43-.94.6-1.77.72-2.79.2-1.67.37-3.34.52-5.01.13-1.44.21-2.89.3-4.33.07-1.15.1-2.31.16-3.46.06-1.07.16-2.13.19-3.2.05-1.28.03-2.56.07-3.84.06-1.7.16-3.39.21-5.09.04-1.43.04-2.85.07-4.28.05-2.27.11-4.53.17-6.79.06-2.29.12-4.57.18-6.86.06-2.2.11-4.41.17-6.61.04-1.59.08-3.19.13-4.78.07-1.99.16-3.98.23-5.97.04-1.26.04-2.52.07-3.77,0-.25,0-.51.36-.66.08.22.2.42.21.63.06,1.21.1,2.43.13,3.64.03,1.47.04,2.94.07,4.4.04,2.01.09,4.03.14,6.04.04,1.49.08,2.98.12,4.47.03,1.38.06,2.77.08,4.15.03,2.35.03,4.7.09,7.05.05,2.2-.16,4.41.12,6.6.01.08,0,.17,0,.25.03,2.06.06,4.11.09,6.17.03,2.39.05,4.79.08,7.18,0,.36-.02.71,0,1.07.09,2.54.02,5.08.25,7.61.1,1.17.07,2.35.13,3.52.08,1.59.16,3.18.28,4.77.1,1.38.18,3.77.93,5.75.32.84,1.3.95,1.81.22.11-.15.18-.33.24-.51.38-1.01.5-1.7.61-2.76.2-1.94.46-3.88.45-5.84,0-.46.07-.92.11-1.38.06-.65.15-1.29.18-1.94.06-1.3.09-2.6.14-3.9.03-.73.08-1.47.11-2.2.04-1.11.04-2.22.08-3.33.05-1.34.12-2.68.17-4.02.07-1.91.15-3.81.2-5.72.04-1.66.05-3.31.07-4.97.02-1.39.03-2.77.04-4.15,0-.17,0-.34.03-.5.17-.96.15-1.92.11-2.89,0-.21,0-.42,0-.63.07-1.72.16-3.44.2-5.16.06-2.87.09-5.75.14-8.62,0-.1,0-.21.02-.31.22-1.65.13-3.31.21-4.96.06-1.09.04-2.18.06-3.27.02-.82.06-1.64.09-2.45.07-1.8.14-3.6.2-5.4.02-.56.08-1.1.25-1.76.25.41.3.75.31,1.09.03,1.24.09,2.48.08,3.71-.08,8.31.14,16.63-.12,24.94-.1,3.08,0,6.17-.07,9.25-.13,5.1-.05,10.2-.07,15.31-.01,2.25-.08,4.49-.08,6.74,0,3.04.06,6.09.07,9.13,0,2.98-.02,5.61.43,8.57.02.12.02.25.05.37.1.41.38.64.76.74.39.1.7-.07.87-.43.17-.37.32-.77.41-1.17.09-.39.11-.79.15-1.19.16-1.71.3-3.07.43-4.79.1-1.28.15-2.55.23-3.83.09-1.55.18-3.1.26-4.65.06-1.19.09-2.39.15-3.58.06-1.26.17-2.51.22-3.77.06-1.53.04-3.06.14-4.59.15-2.2.23-4.4.22-6.6,0-.9.03-1.8.08-2.7.06-1.26.16-2.51.21-3.77.04-1.07.03-2.14.06-3.21.05-1.59.11-3.18.18-4.78.02-.5.18-1.01.12-1.5-.13-1.12.03-2.22.02-3.33,0-.21.07-.43.1-.64.33.33.31.72.31,1.08,0,1.01-.01,2.01-.03,3.02-.05,2.08-.11,4.15-.15,6.23-.05,2.35-.1,4.7-.12,7.05-.04,4.05-.04,8.1-.08,12.16-.03,3,.02,6-.07,9-.06,1.88-.09,3.77.08,5.66.12,1.35,0,2.73.03,4.09.02,1.93.06,3.48.11,5.41.01.46.07.92.14,1.38.08.52.51.89.98.87.39,0,.68-.32.77-.84.03-.19.04-.38.05-.56.04-.61.06-1.22.11-1.82.06-.86.24-4.19.27-5.2.03-1.03.06-2.06.11-3.08.06-1.26.15-2.51.18-3.77.04-1.44.03-2.89.05-4.33.02-1.2.05-2.39.08-3.59.01-.57,0-1.13.03-1.7.02-.48.07-.96.11-1.44.03-.37.09-.75.11-1.12.02-.59,0-1.17.03-1.76.02-.46.11-.91.12-1.37.02-.5,0-1.01,0-1.51,0-.1.05-.19.08-.29.11.2.14.38.13.57-.01.9-.06,1.81-.04,2.71.04,2.83-.13,5.66.06,8.5.08,1.25-.01,2.52,0,3.78.01,2.41.02,4.83.06,7.24.02,1.28.07,2.56.13,3.84.07,1.53.16,1.85.27,3.38.06.77.2,1.54.34,2.3.07.39.55.79.86.81.33.02.76-.3.9-.74.12-.4.22-.81.25-1.22.07-.77.19-2.54.22-2.64.14.51.21,1,.25,1.49.06.69.1,1.65.17,2.34.02.2.1.41.2.59.16.29.44.46.77.43.3-.03.55-.2.65-.51.13-.4.25-.8.32-1.21.08-.52.47-5.1.59-7.34.07-1.34.1-2.68.17-4.02.06-1.21.18-2.42.23-3.64.09-2.08.13-4.15.22-6.23.05-1.15.14-2.3.19-3.45.07-1.57.11-3.14.16-4.71.06-2.01.11-4.03.17-6.04.03-1.03.08-2.06.12-3.08.07-1.57.14-3.14.2-4.71.01-.29,0-.59.01-.88.03-1.28.06-2.56.1-3.84.04-1.34.09-2.68.14-4.03.05-1.3.13-2.6.18-3.89.04-1.07.03-2.14.08-3.21.05-1.28.17-2.55.21-3.83.06-1.91.07-3.82.11-5.73.02-.86.06-1.72.12-2.57.07-1.11.2-2.21.25-3.32.05-1.09.04-2.18.06-3.27,0-.11.04-.22.07-.32.14.33.19.65.19.98,0,1.38,0,2.77,0,4.15-.03,4.79-.06,9.57-.09,14.36,0,.43.11.57.54.58,1.35.04,2.63.36,3.92.77,1.65.52,3.05,1.46,4.35,2.56,1.53,1.29,2.64,2.93,3.46,4.76.49,1.09.88,2.22,1.02,3.42.13,1.16.23,2.33.11,3.51-.16,1.5-.53,2.93-1.13,4.29-1.2,2.69-3.05,4.83-5.59,6.27-1.01.57-2.12,1.04-3.24,1.35-.93.26-1.9.56-2.91.46-.39-.04-.46.07-.47.48-.01.5.01,1.01.01,1.51,0,7.73,0,15.46,0,23.19,0,2.2.1,4.51.09,6.71,0,.45.08.58.46.58.94,0,2.05-.08,2.99-.17,1.63-.17,2.79-.24,4.3-.64.87-.23,1.77-.33,2.65-.54.76-.18,1.51-.4,2.25-.65,1.37-.45,2.77-.83,4.08-1.4,1.73-.76,3.42-1.63,5.1-2.53,2.97-1.58,5.64-3.62,8.15-5.86,2.63-2.35,4.88-5.04,6.89-7.95,1.7-2.46,3.13-5.07,4.34-7.82,1.13-2.58,1.97-5.25,2.61-7.99.38-1.63.59-3.3.86-4.95.14-.85.22-1.71.38-2.55.29-1.54.61-3.08.93-4.62.34-1.62.68-3.24,1.04-4.85.09-.41.25-.8.4-1.19.04-.1.15-.25.23-.25.12,0,.25.09.35.18.06.05.07.15.11.22.4.79.66,1.62.87,2.48.29,1.18.6,2.35.94,3.51.41,1.41.81,2.82,1.3,4.2.26.72.65,1.4,1.2,1.96,1.15,1.18,2.64,1.16,3.73-.08.34-.39.64-.83.89-1.28.84-1.5,1.25-3.18,1.81-4.8.26-.75.6-1.46.91-2.19.03-.07.09-.14.15-.2.19-.2.4-.24.58-.01.18.23.36.47.46.74.39,1.08.74,2.18,1.12,3.26.32.92.71,1.81,1.46,2.45.55.48,1.23.77,1.99.62,1.33-.27,2.14-1.17,2.72-2.34.36-.73.69-1.48,1.08-2.19.29-.54.7-.69,1.25-.48.24.09.5.24.66.44.31.39.58.81.8,1.26.41.82.83,1.62,1.47,2.3.61.66,1.91.63,2.4.04.17-.21.39-.38.56-.59.79-.95,1.8-1.44,3.02-1.48.18,0,10.3-.56,14.24-.83v1.99h12.43v-5.69h-12.43v2.27Zm-52.11,3.07c-.14,1.08-.12,2.18-.22,3.26-.12,1.27-.23,2.55-.45,3.81-.26,1.51-.57,3.01-.98,4.48-1.15,4.1-2.85,7.96-5.3,11.43-.96,1.36-1.97,2.69-3,3.99-.49.62-1.09,1.14-1.64,1.71-.6.63-1.2,1.27-1.8,1.9-.24.25-.51.46-.77.68-.04-.03-.07-.06-.11-.08.03-.1.02-.23.08-.3,1.77-2.26,3.11-4.79,4.49-7.29.7-1.28,1.29-2.63,1.86-3.97.5-1.17.93-2.38,1.36-3.58.18-.51.32-1.04.44-1.57.04-.18-.03-.38-.16-.56-.2.45-.4.9-.59,1.36-1.31,3.11-2.86,6.09-4.73,8.89-.82,1.23-1.77,2.37-2.87,3.37-.06.06-.12.14-.19.16-.11.03-.27.05-.33-.01-.06-.06-.07-.24-.03-.33.13-.26.31-.49.44-.76.49-.99.97-1.99,1.46-2.98.73-1.46,1.47-2.9,2.21-4.36.09-.18.15-.38.17-.61-.88,1.04-1.46,2.28-2.24,3.38-.79,1.12-1.56,2.26-2.39,3.36-.81,1.07-1.54,2.22-2.51,3.17.29-1.11.95-2.03,1.39-3.06.45-1.06.96-2.09,1.45-3.12.48-1,.98-2,1.48-3l-.13-.09c-.66.79-1.32,1.57-1.98,2.36-.94,1.14-1.81,1.99-2.29,2.15.04-.19.04-.35.1-.48.92-1.92,1.85-3.84,2.77-5.76.05-.1.04-.22.06-.33-.04-.02-.07-.04-.11-.07-.41.51-.81,1.02-1.23,1.51-.43.51-.87,1.01-1.32,1.5-.44.49-.89.99-1.35,1.47-.45.46-.81,1.03-1.4,1.33-.04-.03-.08-.06-.12-.09.08-.15.14-.32.24-.46,1.71-2.42,3.16-5.01,4.65-7.57.5-.87,1.04-1.71,1.54-2.58.41-.7.81-1.41,1.21-2.12.1-.19.27-.38.09-.72-.21.21-.41.38-.56.58-1.57,2.1-3.13,4.21-4.69,6.32-.24.32-.5.63-.75.95-.05-.03-.1-.05-.16-.08.03-.14.03-.3.1-.41,1-1.72,1.72-3.57,2.47-5.41.07-.17.17-.33.25-.51.08-.18.12-.36-.16-.52-.46.32-.7.88-1.07,1.3-.39.44-.73.91-1.1,1.36-.39.46-.8.9-1.2,1.36-.38.44-.75.89-1.13,1.33-.38.44-.77.87-1.17,1.3-.38.42-.62.98-1.19,1.26-.14-.26,0-.43.08-.61.62-1.53,1.24-3.06,1.87-4.59.46-1.12.93-2.24,1.38-3.36.12-.29.17-.61.25-.92-.42.27-.53.77-.73,1.17-1.31,2.69-3.1,5.04-4.89,7.39-.21.28-.42.61-.9.71.54-1.18,1.05-2.28,1.55-3.39.49-1.09,1.08-2.14,1.53-3.41-.59.25-.75.71-1.04,1.03-.31.34-.57.72-.86,1.07-.31.37-.63.72-.93,1.09-.29.35-.56.72-.85,1.08-.29.36-.58.71-.88,1.05-.28.33-.44.79-.99.88.32-.57.64-1.13.97-1.7.34-.6.68-1.2,1.03-1.79.34-.58.71-1.14,1.01-1.73.3-.58.74-1.08.98-1.84-.54.25-.78.62-1.06.94-.83.96-1.64,1.93-2.47,2.89-.17.19-.4.33-.71.58.07-.63.41-.96.59-1.36.18-.4.39-.78.58-1.18.2-.41.37-.84.57-1.25.18-.38.39-.75.62-1.19-.44-.05-.56.22-.73.4-.79.85-1.59,1.7-2.39,2.54-.09.1-.22.15-.38.19.28-.94.99-1.6,1.45-2.42.48-.86,1.02-1.68,1.52-2.52.48-.81,1.11-1.52,1.49-2.39-.04-.03-.09-.07-.13-.1-.37.43-.76.84-1.11,1.28-.37.45-.71.92-1.07,1.38-.35.45-.64.96-1.13,1.26-.04-.02-.08-.05-.12-.07.07-.16.13-.32.21-.48.45-.82.97-1.61,1.35-2.47.92-2.02,1.48-4.13,1.49-6.38.01-1.58-.03-3.15-.39-4.69-.39-1.7-.9-3.36-1.73-4.9-.31-.58-.31-.65-.29-1.13,1.03,1.34,1.71,2.86,2.7,4.14.04-.02.09-.04.13-.06-.1-.28-.18-.57-.31-.83-.54-1.15-1.09-2.3-1.66-3.44-.9-1.81-1.83-3.62-2.74-5.43-.05-.11-.08-.22-.04-.4.09.08.21.14.27.24.71,1.08,1.43,2.15,2.12,3.25.72,1.15,1.4,2.32,2.11,3.47.17.28.39.53.58.78.26-.11.18-.27.13-.43-.53-1.45-1.07-2.9-1.6-4.36-.05-.15-.07-.31-.1-.46.29-.09.38.1.47.25.54.92,1.07,1.84,1.6,2.76.85,1.48,1.7,2.97,2.56,4.45.04.06.11.1.19.17.16-.26.02-.44-.05-.62-.46-1.1-.92-2.2-1.37-3.3-.25-.62-.49-1.24-.73-1.86-.03-.08,0-.19,0-.32.56.14.8.62,1.16.94.39.34.75.72,1.1,1.1.33.36.53.83,1.07,1.23-.04-.28-.04-.44-.09-.57-.63-1.75-1.25-3.51-1.89-5.26-.19-.51-.42-1-.63-1.5-.09-.22-.26-.44-.04-.76.65.48.92,1.25,1.41,1.84.49.59.92,1.23,1.37,1.86.45.63.82,1.32,1.33,1.99.1-.44.1-.43-.5-1.74-.26-.57-.53-1.14-.72-1.73-.18-.57-.66-1.01-.69-1.66.32-.1.48.09.6.26.48.65,1,1.29,1.41,1.99,1.1,1.85,2.07,3.77,2.85,5.78.48,1.25.97,2.49,1.46,3.73.1.26.17.57.62.6-.68-5.02-2.34-9.67-4.55-14.13.05-.02.09-.05.14-.07.08.08.17.15.22.25.56.93,1.13,1.85,1.67,2.79.77,1.34,1.51,2.69,2.28,4.04.13.22.31.41.53.57-.17-1.06-.67-2-.99-3-.33-1.01-.72-2-1.08-3.01-.35-.99-.68-1.98-1.03-2.96-.36-.99-.74-1.98-1.02-3.04.11.06.24.1.32.19.13.13.22.3.33.46,1.35,1.88,2.69,3.76,4.04,5.64.14.19.32.36.54.49-.29-1.09-.86-2.05-1.27-3.08-.42-1.03-.85-2.05-1.28-3.07-.44-1.04-.9-2.07-1.34-3.11-.43-1.02-.85-2.04-1.32-3.15.19.06.33.07.41.15.27.26.52.54.77.81,1.22,1.33,2.21,2.82,2.97,4.46.78,1.69,1.47,3.41,2.18,5.13.34.83.65,1.68.95,2.52.28.79.53,1.58.77,2.38.36,1.22.71,2.45,1.05,3.69.17.61.28,1.22.44,1.83.06.23.19.45.34.66.1-.52.1-1.01-.07-1.52-.18-.53-.25-1.1-.4-1.64-.55-1.98-1.09-3.95-1.68-5.92-.28-.92-.65-1.8-1-2.7-.57-1.48-1.12-2.97-1.73-4.43-.55-1.31-1.16-2.59-1.75-3.89-.06-.14-.09-.3-.14-.46.04-.03.07-.05.11-.08.09.11.21.2.27.32.93,1.66,1.84,3.32,2.77,4.98,1.13,2.02,2.28,4.03,3.41,6.06.69,1.24,1.33,2.51,2,3.76.18.34.39.67.71.97-.03-.14-.03-.29-.08-.42-.58-1.39-1.19-2.76-1.76-4.15-.8-1.95-1.58-3.92-2.38-5.88-.52-1.29-1.05-2.59-1.58-3.88-.16-.38-.37-.75-.55-1.12-.05-.1-.06-.22-.03-.36.94.88,1.57,2.01,2.33,3.03.76,1.02,1.46,2.08,2.16,3.14.71,1.08,1.38,2.18,2.13,3.23-.73-1.84-1.66-3.58-2.47-5.38-.82-1.82-1.64-3.64-2.38-5.54.11.09.25.16.34.27,1.62,2.12,3.18,4.28,4.53,6.59,1.16,1.96,2.14,4.02,2.91,6.18.36,1.01.74,2.01,1.02,3.04.34,1.25.63,2.52.85,3.8.23,1.3.38,2.61.5,3.93.15,1.73.33,3.46.1,5.21Z"/>
      </g>
      <g>
        <path class="cls-5" d="m0,45.11c0,.45.26.81.58.81h3.47s0-1.62,0-1.62H.58C.26,44.3,0,44.67,0,45.11Z"/>
        <rect class="cls-5" x="4.52" y="43.02" width="2.13" height="4.03"/>
      </g>
      <g>
        <rect class="cls-4" x="222.61" y="42.11" width="2.13" height="4.03"/>
        <path class="cls-4" d="m228.68,43.22h-3.47s0,1.62,0,1.62h3.47c.32,0,.58-.36.58-.81,0-.45-.26-.81-.58-.81Z"/>
      </g>
    </g>
  </g>
</svg>