<?xml version="1.0" encoding="UTF-8"?>
<svg id="Capa_2" data-name="Capa 2" xmlns="http://www.w3.org/2000/svg" viewBox="0 0 163.76 32.41">
  <defs>
    <style>
      .cls-1 {
        fill: #f6a500;
        stroke-width: 0px;
      }
    </style>
  </defs>
  <g id="Capa_3" data-name="Capa 3">
    <g>
      <path class="cls-1" d="m2,0c5.53,0,9.96,2.66,13.29,7.98.9,1.55,1.64,3.07,2.22,4.54.3.76.53,1.4.7,1.94h.04c.65-1.95,1.37-3.66,2.15-5.12.57-1.1,1.34-2.28,2.3-3.54,3.13-3.87,7.04-5.8,11.73-5.8.81,0,1.42.38,1.83,1.15.13.21.19.6.19,1.15v27.8c0,.74-.16,1.27-.47,1.58-.41.48-.9.73-1.47.73h-.09c-.75,0-1.34-.39-1.75-1.17-.11-.26-.17-.5-.17-.73V4.12c-.55.09-1.14.23-1.77.45-.73.27-1.38.58-1.96.94-2.93,1.86-5.26,5.44-7,10.73-.6,1.89-1.16,4.13-1.69,6.72-.07.23-.27.51-.6.85-.41.31-.83.47-1.24.47h-.11c-.67,0-1.22-.34-1.66-1.02-.11-.17-.28-.82-.49-1.96-.71-3.14-1.49-5.73-2.35-7.77-.65-1.58-1.44-3.05-2.37-4.42-.37-.58-1.01-1.34-1.92-2.26-.97-.85-1.78-1.43-2.43-1.73-.84-.47-1.84-.8-3.01-1v10.11c0,.68-.34,1.25-1.02,1.69-.31.16-.62.23-.92.23h-.06c-.63,0-1.16-.29-1.6-.87-.23-.3-.34-.75-.34-1.37V2.24c0-.68.16-1.19.47-1.51.41-.48.92-.73,1.54-.73Zm-.02,20.33c.77,0,1.37.38,1.79,1.15.11.26.17.51.17.77v8.28c0,.6-.3,1.12-.9,1.56-.34.21-.69.32-1.05.32h-.09c-.68,0-1.25-.35-1.69-1.05-.16-.28-.23-.68-.23-1.19v-7.6c0-.74.18-1.27.53-1.6.41-.43.9-.64,1.45-.64Z"/>
      <path class="cls-1" d="m51.6,8.04h3.26c2.42,0,4.35.41,5.78,1.24,1.79.95,3.12,2.46,3.97,4.52.53,1.35.79,2.8.79,4.35v12.33c0,.64-.31,1.18-.94,1.62-.33.2-.66.3-1,.3h-12.46c-3.07,0-5.55-.97-7.42-2.92-1.69-1.88-2.54-4.28-2.54-7.21,0-.77.37-1.36,1.11-1.77.24-.14.61-.21,1.11-.21h11.73c.78,0,1.34.21,1.68.62.37.38.56.83.56,1.32v.09c0,.61-.28,1.14-.83,1.58-.36.23-.72.34-1.09.34h-10.09c0,.19.17.69.51,1.52.98,1.79,2.74,2.69,5.29,2.69h10.41v-10.33c0-2.11-.62-3.71-1.88-4.82-.98-.85-2.5-1.28-4.56-1.28h-3.5c-2.12,0-3.66.43-4.61,1.28-.38.33-.69.68-.92,1.04-.28.53-.49.89-.62,1.09-.44.44-.94.66-1.49.66h-.09c-.58,0-1.1-.28-1.56-.83-.23-.36-.34-.74-.34-1.15,0-.71.54-1.72,1.62-3.03.77-.77,1.32-1.23,1.64-1.39.64-.44,1.39-.8,2.24-1.09,1.08-.37,2.49-.56,4.22-.56Z"/>
      <path class="cls-1" d="m80.22,8.04h4.31c3.67,0,6.44,1.32,8.32,3.97.58.93.87,1.57.87,1.94v.24c0,.67-.34,1.22-1.02,1.66-.31.16-.64.23-.98.23-.67,0-1.22-.31-1.66-.94-.57-1.27-1.42-2.13-2.56-2.58-.87-.37-1.86-.56-2.99-.56h-4.29c-2.93,0-4.81,1.14-5.63,3.43-.28.84-.43,1.69-.43,2.54v2.31h4.12c.84,0,1.46.42,1.86,1.26.09.23.13.43.13.62v.21c0,.58-.29,1.1-.88,1.54-.34.23-.73.34-1.17.34h-5.97c-.93,0-1.57-.45-1.94-1.34-.07-.2-.11-.39-.11-.58v-4.44c0-2.09.55-4.02,1.64-5.8.28-.43.7-.92,1.26-1.49,1.83-1.71,4.21-2.56,7.13-2.56Zm6.1,12.25h6.23c.82,0,1.44.41,1.86,1.24.1.28.15.55.15.79,0,2.93-.88,5.36-2.65,7.27-1.85,1.88-4.34,2.82-7.47,2.82h-12.31c-.73,0-1.3-.36-1.73-1.07-.14-.28-.21-.56-.21-.83v-.15c0-.67.35-1.23,1.05-1.68.3-.16.63-.24,1-.24h12.18c2.82,0,4.67-1,5.57-2.99.16-.4.28-.8.38-1.2h-3.99c-.84,0-1.46-.41-1.86-1.24-.1-.27-.15-.52-.15-.75,0-.77.37-1.37,1.11-1.79.28-.13.56-.19.83-.19Z"/>
      <path class="cls-1" d="m101.3,0h.19c.61,0,1.14.31,1.58.92.2.34.3.66.3.96v6.27h6.25c.61,0,1.14.31,1.58.92.2.33.3.64.3.94v.19c0,.61-.31,1.14-.92,1.58-.34.2-.66.3-.96.3h-6.25v2.18c0,.68-.36,1.25-1.07,1.69-.31.14-.6.21-.85.21h-.13c-.63,0-1.15-.3-1.58-.92-.21-.31-.32-.64-.32-.98V1.88c0-.61.31-1.14.92-1.58.34-.2.66-.3.96-.3Zm0,20.35h.19c.64,0,1.18.33,1.62.98.17.24.26.72.26,1.43,0,.76.18,1.62.55,2.6.5,1.17,1.29,2,2.39,2.49.8.41,2.05.62,3.78.62h1.58c.6,0,1.12.31,1.56.92.2.33.3.65.3.96v.19c0,.6-.31,1.12-.92,1.58-.33.18-.64.28-.94.28h-2.43c-2.4,0-4.5-.66-6.29-1.98-.67-.55-1.17-1.05-1.49-1.49-.4-.54-.7-1.04-.92-1.49-.74-1.58-1.11-3.2-1.11-4.86v-.36c0-.6.31-1.12.92-1.58.34-.19.66-.28.96-.28Z"/>
      <path class="cls-1" d="m120.29,20.29h.15c.68,0,1.25.35,1.69,1.05.17.24.26.73.26,1.47,0,.67.16,1.45.47,2.35.5,1.27,1.29,2.15,2.37,2.65.45.21.99.38,1.6.51.48.1,1.32.15,2.52.15h7.47c.53,0,1.01.24,1.45.73.28.38.43.77.43,1.15v.17c0,.61-.3,1.14-.9,1.58-.33.21-.67.32-1.02.32h-8.51c-2.26,0-4.27-.6-6.02-1.79-.38-.27-.79-.63-1.22-1.07-1.75-1.89-2.62-4.31-2.62-7.25,0-.85.43-1.49,1.28-1.9.26-.07.46-.11.62-.11Zm8-12.25h4.59c2.55,0,4.73.72,6.55,2.15.53.47.91.87,1.15,1.19,1.45,1.85,2.18,4.05,2.18,6.61v4.33c0,.61-.29,1.14-.87,1.58-.36.21-.69.32-1,.32h-12.44c-.61,0-1.14-.32-1.6-.96-.19-.36-.28-.69-.28-1,0-.73.33-1.3,1-1.73.31-.17.6-.26.87-.26h10.35v-2.26c0-1.91-.55-3.43-1.66-4.59-.63-.6-1.51-1.02-2.67-1.28-.51-.11-1.42-.17-2.73-.17h-2.3c-1.61,0-2.71.11-3.31.32-.48.16-.9.33-1.26.53-.87.53-1.52,1.29-1.96,2.31-.45.63-1,.94-1.62.94h-.21c-.47,0-.94-.24-1.41-.73-.28-.41-.43-.82-.43-1.24,0-.67.48-1.62,1.43-2.86.65-.7,1.12-1.13,1.39-1.3,1.75-1.28,3.83-1.92,6.25-1.92Z"/>
      <path class="cls-1" d="m158.56,8.06h2.9c.74,0,1.25.15,1.54.45.33.21.56.56.7,1.04.04.13.06.26.06.41v.19c0,.61-.31,1.14-.94,1.58-.33.2-.65.3-.98.3h-3.58c-1.63,0-2.84.19-3.63.56-1.1.45-1.91,1.22-2.43,2.3-.17.41-.46.74-.87.98-.3.16-.59.23-.88.23h-.17c-.07,0-.18,0-.32-.02-.13.01-.24.02-.34.02h-.15c-.64,0-1.18-.32-1.62-.96-.19-.28-.28-.71-.28-1.28v-3.54c0-.82.24-1.41.7-1.75.37-.33.77-.49,1.19-.49h.19c.53,0,1.01.25,1.45.75.27.38.41.7.41.96.65-.44,1.28-.77,1.88-.98,1.07-.35,1.75-.53,2.05-.53.54-.14,1.58-.21,3.11-.21Zm-9.09,12.25h.19c.53,0,1.01.25,1.45.75.28.38.43.77.43,1.15v8.32c0,.61-.31,1.13-.92,1.56-.31.21-.65.32-1,.32h-.15c-.65,0-1.21-.34-1.66-1.02-.16-.31-.24-.7-.24-1.15v-7.68c0-.82.24-1.41.7-1.75.37-.33.77-.49,1.19-.49Z"/>
    </g>
  </g>
</svg>