<?xml version="1.0" encoding="UTF-8"?>
<svg id="Capa_2" data-name="Capa 2" xmlns="http://www.w3.org/2000/svg" viewBox="0 0 105.05 32.41">
  <defs>
    <style>
      .cls-1 {
        fill: #e20613;
        stroke-width: 0px;
      }
    </style>
  </defs>
  <g id="Capa_4" data-name="Capa 4">
    <g>
      <path class="cls-1" d="m2.22,0h15.7c2.69,0,4.81.55,6.38,1.64.33.16.87.61,1.62,1.37.94,1.12,1.59,2.32,1.94,3.58.31,1.12.47,2.21.47,3.26v2.43c0,1.32-.6,2.6-1.81,3.84-.8.74-1.61,1.34-2.43,1.81-1.39.83-2.97,1.61-4.74,2.35v.02h3.9c.75,0,1.81,0,3.18.02.51,0,.99.23,1.43.68.31.38.47.79.47,1.22v.36c0,2.06-.5,3.93-1.49,5.59-1.04,1.69-2.65,2.92-4.82,3.67-1.2.37-2.41.56-3.65.56H1.94c-.68,0-1.25-.34-1.69-1.02-.17-.28-.26-.68-.26-1.17v-7.68c0-.77.22-1.33.66-1.69.38-.34.82-.51,1.32-.51.73,0,1.3.35,1.73,1.05.16.3.23.58.23.85v6.23h14.44c2,0,3.58-.61,4.71-1.83.55-.7.92-1.49,1.11-2.37h-.75c-.97,0-1.52,0-1.66-.02-.1,0-.52,0-1.26.02-4.31.02-7.82.02-10.52.02-.6,0-1.12-.29-1.56-.88-.23-.36-.34-.73-.34-1.13,0-.65.32-1.21.96-1.66,2.09-1.04,4.89-2.31,8.41-3.8,1.88-.81,3.44-1.58,4.67-2.3,1.48-.94,2.22-1.7,2.22-2.28v-2.35c0-1.61-.43-2.98-1.3-4.12-.51-.53-.88-.83-1.11-.92-.91-.6-2.24-.9-3.99-.9H3.95v10.28c0,.65-.31,1.19-.94,1.62-.31.2-.64.3-.98.3h-.09c-.73,0-1.3-.36-1.73-1.09-.14-.27-.21-.64-.21-1.11V2.22C0,1.37.27.76.81.41c.28-.27.75-.41,1.41-.41Z"/>
      <path class="cls-1" d="m34.86,20.29h.15c.68,0,1.25.35,1.69,1.05.17.24.26.73.26,1.47,0,.67.16,1.45.47,2.35.5,1.27,1.29,2.15,2.37,2.65.45.21.99.38,1.6.51.48.1,1.32.15,2.52.15h7.47c.53,0,1.01.24,1.45.73.28.38.43.77.43,1.15v.17c0,.61-.3,1.14-.9,1.58-.33.21-.67.32-1.02.32h-8.51c-2.26,0-4.27-.6-6.02-1.79-.38-.27-.79-.63-1.22-1.07-1.75-1.89-2.62-4.31-2.62-7.25,0-.85.43-1.49,1.28-1.9.26-.07.46-.11.62-.11Zm8-12.25h4.59c2.55,0,4.73.72,6.55,2.15.53.47.91.87,1.15,1.19,1.45,1.85,2.18,4.05,2.18,6.61v4.33c0,.61-.29,1.14-.87,1.58-.36.21-.69.32-1,.32h-12.44c-.61,0-1.14-.32-1.6-.96-.19-.36-.28-.69-.28-1,0-.73.33-1.3,1-1.73.31-.17.6-.26.87-.26h10.35v-2.26c0-1.91-.55-3.43-1.66-4.59-.63-.6-1.51-1.02-2.67-1.28-.51-.11-1.42-.17-2.73-.17h-2.3c-1.61,0-2.71.11-3.31.32-.48.16-.9.33-1.26.53-.87.53-1.52,1.29-1.96,2.31-.45.63-1,.94-1.62.94h-.21c-.47,0-.94-.24-1.41-.73-.28-.41-.43-.82-.43-1.24,0-.67.48-1.62,1.43-2.86.65-.7,1.12-1.13,1.39-1.3,1.75-1.28,3.83-1.92,6.25-1.92Z"/>
      <path class="cls-1" d="m72.49,8.04h3.26c2.42,0,4.35.41,5.78,1.24,1.79.95,3.12,2.46,3.97,4.52.53,1.35.79,2.8.79,4.35v12.33c0,.64-.31,1.18-.94,1.62-.33.2-.66.3-1,.3h-12.46c-3.07,0-5.55-.97-7.42-2.92-1.69-1.88-2.54-4.28-2.54-7.21,0-.77.37-1.36,1.11-1.77.24-.14.61-.21,1.11-.21h11.73c.78,0,1.34.21,1.68.62.37.38.56.83.56,1.32v.09c0,.61-.28,1.14-.83,1.58-.36.23-.72.34-1.09.34h-10.09c0,.19.17.69.51,1.52.98,1.79,2.74,2.69,5.29,2.69h10.41v-10.33c0-2.11-.62-3.71-1.88-4.82-.98-.85-2.5-1.28-4.56-1.28h-3.5c-2.12,0-3.66.43-4.61,1.28-.38.33-.69.68-.92,1.04-.28.53-.49.89-.62,1.09-.44.44-.94.66-1.49.66h-.09c-.58,0-1.1-.28-1.56-.83-.23-.36-.34-.74-.34-1.15,0-.71.54-1.72,1.62-3.03.77-.77,1.32-1.23,1.64-1.39.64-.44,1.39-.8,2.24-1.09,1.08-.37,2.49-.56,4.22-.56Z"/>
      <path class="cls-1" d="m92.83,0h.19c.61,0,1.14.31,1.58.92.2.34.3.66.3.96v6.27h6.25c.61,0,1.14.31,1.58.92.2.33.3.64.3.94v.19c0,.61-.31,1.14-.92,1.58-.34.2-.66.3-.96.3h-6.25v2.18c0,.68-.36,1.25-1.07,1.69-.31.14-.6.21-.85.21h-.13c-.63,0-1.15-.3-1.58-.92-.21-.31-.32-.64-.32-.98V1.88c0-.61.31-1.14.92-1.58.34-.2.66-.3.96-.3Zm0,20.35h.19c.64,0,1.18.33,1.62.98.17.24.26.72.26,1.43,0,.76.18,1.62.55,2.6.5,1.17,1.29,2,2.39,2.49.8.41,2.05.62,3.78.62h1.58c.6,0,1.12.31,1.56.92.2.33.3.65.3.96v.19c0,.6-.31,1.12-.92,1.58-.33.18-.64.28-.94.28h-2.43c-2.4,0-4.5-.66-6.29-1.98-.67-.55-1.17-1.05-1.49-1.49-.4-.54-.7-1.04-.92-1.49-.74-1.58-1.11-3.2-1.11-4.86v-.36c0-.6.31-1.12.92-1.58.34-.19.66-.28.96-.28Z"/>
    </g>
  </g>
</svg>